<svg width="230" height="110" viewBox="0 0 230 110" fill="none" xmlns="http://www.w3.org/2000/svg">
<rect width="230" height="110" rx="5" fill="#CBFFC2"/>
<path d="M44.9831 25.8H53.4311V27.16H46.5671V30.36H50.0551C51.3884 30.36 52.4017 30.6373 53.0951 31.192C53.7884 31.7467 54.1351 32.5467 54.1351 33.592C54.1351 34.6907 53.7564 35.5333 52.9991 36.12C52.2524 36.7067 51.1804 37 49.7831 37H44.9831V25.8ZM49.7191 35.736C50.6364 35.736 51.3351 35.56 51.8151 35.208C52.2951 34.856 52.5351 34.3387 52.5351 33.656C52.5351 32.3013 51.5964 31.624 49.7191 31.624H46.5671V35.736H49.7191ZM59.9022 37.096C59.0595 37.096 58.3022 36.9093 57.6302 36.536C56.9582 36.1627 56.4302 35.6507 56.0462 35C55.6729 34.3387 55.4862 33.592 55.4862 32.76C55.4862 31.928 55.6729 31.1867 56.0462 30.536C56.4302 29.8747 56.9582 29.3627 57.6302 29C58.3022 28.6267 59.0595 28.44 59.9022 28.44C60.7449 28.44 61.4969 28.6267 62.1582 29C62.8302 29.3627 63.3529 29.8747 63.7262 30.536C64.1102 31.1867 64.3022 31.928 64.3022 32.76C64.3022 33.592 64.1102 34.3387 63.7262 35C63.3529 35.6507 62.8302 36.1627 62.1582 36.536C61.4969 36.9093 60.7449 37.096 59.9022 37.096ZM59.9022 35.752C60.4462 35.752 60.9315 35.6293 61.3582 35.384C61.7955 35.128 62.1369 34.776 62.3822 34.328C62.6275 33.8693 62.7502 33.3467 62.7502 32.76C62.7502 32.1733 62.6275 31.656 62.3822 31.208C62.1369 30.7493 61.7955 30.3973 61.3582 30.152C60.9315 29.9067 60.4462 29.784 59.9022 29.784C59.3582 29.784 58.8675 29.9067 58.4302 30.152C58.0035 30.3973 57.6622 30.7493 57.4062 31.208C57.1609 31.656 57.0382 32.1733 57.0382 32.76C57.0382 33.3467 57.1609 33.8693 57.4062 34.328C57.6622 34.776 58.0035 35.128 58.4302 35.384C58.8675 35.6293 59.3582 35.752 59.9022 35.752ZM66.3602 28.52H67.8962V32.12H72.7282V28.52H74.2642V37H72.7282V33.448H67.8962V37H66.3602V28.52ZM84.6588 28.52L80.5468 37.848C80.1841 38.712 79.7575 39.32 79.2668 39.672C78.7868 40.024 78.2055 40.2 77.5228 40.2C77.1068 40.2 76.7015 40.1307 76.3068 39.992C75.9228 39.864 75.6028 39.672 75.3468 39.416L76.0028 38.264C76.4401 38.68 76.9468 38.888 77.5228 38.888C77.8961 38.888 78.2055 38.7867 78.4508 38.584C78.7068 38.392 78.9361 38.056 79.1388 37.576L79.4108 36.984L75.6668 28.52H77.2668L80.2268 35.304L83.1548 28.52H84.6588ZM89.5331 37.096C88.6691 37.096 87.8957 36.9093 87.2131 36.536C86.5411 36.1627 86.0131 35.6507 85.6291 35C85.2451 34.3387 85.0531 33.592 85.0531 32.76C85.0531 31.928 85.2451 31.1867 85.6291 30.536C86.0131 29.8747 86.5411 29.3627 87.2131 29C87.8957 28.6267 88.6691 28.44 89.5331 28.44C90.3011 28.44 90.9837 28.5947 91.5811 28.904C92.1891 29.2133 92.6584 29.6613 92.9891 30.248L91.8211 31C91.5544 30.5947 91.2237 30.2907 90.8291 30.088C90.4344 29.8853 89.9971 29.784 89.5171 29.784C88.9624 29.784 88.4611 29.9067 88.0131 30.152C87.5757 30.3973 87.2291 30.7493 86.9731 31.208C86.7277 31.656 86.6051 32.1733 86.6051 32.76C86.6051 33.3573 86.7277 33.8853 86.9731 34.344C87.2291 34.792 87.5757 35.1387 88.0131 35.384C88.4611 35.6293 88.9624 35.752 89.5171 35.752C89.9971 35.752 90.4344 35.6507 90.8291 35.448C91.2237 35.2453 91.5544 34.9413 91.8211 34.536L92.9891 35.272C92.6584 35.8587 92.1891 36.312 91.5811 36.632C90.9837 36.9413 90.3011 37.096 89.5331 37.096ZM98.6417 31.4C99.7083 31.4107 100.524 31.656 101.09 32.136C101.655 32.616 101.938 33.2933 101.938 34.168C101.938 35.0853 101.628 35.7947 101.01 36.296C100.402 36.7867 99.527 37.0267 98.3857 37.016L94.8177 37V28.52H96.3537V31.384L98.6417 31.4ZM103.202 28.52H104.738V37H103.202V28.52ZM98.2737 35.848C98.967 35.8587 99.4897 35.72 99.8417 35.432C100.204 35.144 100.386 34.7173 100.386 34.152C100.386 33.5973 100.21 33.192 99.8577 32.936C99.5057 32.68 98.9777 32.5467 98.2737 32.536L96.3537 32.504V35.832L98.2737 35.848ZM115.397 37.096C114.533 37.096 113.759 36.9093 113.077 36.536C112.405 36.1627 111.877 35.6507 111.493 35C111.109 34.3387 110.917 33.592 110.917 32.76C110.917 31.928 111.109 31.1867 111.493 30.536C111.877 29.8747 112.405 29.3627 113.077 29C113.759 28.6267 114.533 28.44 115.397 28.44C116.165 28.44 116.847 28.5947 117.445 28.904C118.053 29.2133 118.522 29.6613 118.853 30.248L117.685 31C117.418 30.5947 117.087 30.2907 116.693 30.088C116.298 29.8853 115.861 29.784 115.381 29.784C114.826 29.784 114.325 29.9067 113.877 30.152C113.439 30.3973 113.093 30.7493 112.837 31.208C112.591 31.656 112.469 32.1733 112.469 32.76C112.469 33.3573 112.591 33.8853 112.837 34.344C113.093 34.792 113.439 35.1387 113.877 35.384C114.325 35.6293 114.826 35.752 115.381 35.752C115.861 35.752 116.298 35.6507 116.693 35.448C117.087 35.2453 117.418 34.9413 117.685 34.536L118.853 35.272C118.522 35.8587 118.053 36.312 117.445 36.632C116.847 36.9413 116.165 37.096 115.397 37.096ZM128.114 33.416H126.354V37H124.818V28.52H126.354V32.104H128.146L130.898 28.52H132.546L129.33 32.6L132.77 37H130.962L128.114 33.416ZM137.089 28.44C138.262 28.44 139.158 28.728 139.777 29.304C140.406 29.88 140.721 30.7387 140.721 31.88V37H139.265V35.88C139.009 36.2747 138.641 36.5787 138.161 36.792C137.691 36.9947 137.131 37.096 136.481 37.096C135.531 37.096 134.769 36.8667 134.193 36.408C133.627 35.9493 133.345 35.3467 133.345 34.6C133.345 33.8533 133.617 33.256 134.161 32.808C134.705 32.3493 135.569 32.12 136.753 32.12H139.185V31.816C139.185 31.1547 138.993 30.648 138.609 30.296C138.225 29.944 137.659 29.768 136.913 29.768C136.411 29.768 135.921 29.8533 135.441 30.024C134.961 30.184 134.555 30.4027 134.225 30.68L133.585 29.528C134.022 29.176 134.545 28.9093 135.153 28.728C135.761 28.536 136.406 28.44 137.089 28.44ZM136.737 35.912C137.323 35.912 137.83 35.784 138.257 35.528C138.683 35.2613 138.993 34.888 139.185 34.408V33.224H136.817C135.515 33.224 134.865 33.6613 134.865 34.536C134.865 34.9627 135.03 35.2987 135.361 35.544C135.691 35.7893 136.15 35.912 136.737 35.912ZM151.038 33.416H149.39V37H147.854V33.416H146.206L143.87 37H142.046L144.958 32.616L142.27 28.52H143.902L146.19 32.104H147.854V28.52H149.39V32.104H151.054L153.342 28.52H154.99L152.302 32.632L155.214 37H153.39L151.038 33.416ZM165.369 35.656V38.968H163.929V37H156.841V38.968H155.385V35.656H155.833C156.377 35.624 156.75 35.24 156.953 34.504C157.155 33.768 157.294 32.728 157.369 31.384L157.497 28.52H164.073V35.656H165.369ZM158.777 31.496C158.734 32.5627 158.643 33.448 158.505 34.152C158.377 34.8453 158.137 35.3467 157.785 35.656H162.537V29.864H158.857L158.777 31.496ZM170.842 37.096C169.999 37.096 169.242 36.9093 168.57 36.536C167.898 36.1627 167.37 35.6507 166.986 35C166.612 34.3387 166.426 33.592 166.426 32.76C166.426 31.928 166.612 31.1867 166.986 30.536C167.37 29.8747 167.898 29.3627 168.57 29C169.242 28.6267 169.999 28.44 170.842 28.44C171.684 28.44 172.436 28.6267 173.098 29C173.77 29.3627 174.292 29.8747 174.666 30.536C175.05 31.1867 175.242 31.928 175.242 32.76C175.242 33.592 175.05 34.3387 174.666 35C174.292 35.6507 173.77 36.1627 173.098 36.536C172.436 36.9093 171.684 37.096 170.842 37.096ZM170.842 35.752C171.386 35.752 171.871 35.6293 172.298 35.384C172.735 35.128 173.076 34.776 173.322 34.328C173.567 33.8693 173.69 33.3467 173.69 32.76C173.69 32.1733 173.567 31.656 173.322 31.208C173.076 30.7493 172.735 30.3973 172.298 30.152C171.871 29.9067 171.386 29.784 170.842 29.784C170.298 29.784 169.807 29.9067 169.37 30.152C168.943 30.3973 168.602 30.7493 168.346 31.208C168.1 31.656 167.978 32.1733 167.978 32.76C167.978 33.3467 168.1 33.8693 168.346 34.328C168.602 34.776 168.943 35.128 169.37 35.384C169.807 35.6293 170.298 35.752 170.842 35.752ZM177.3 28.52H178.836V34.696L184.036 28.52H185.428V37H183.892V30.824L178.708 37H177.3V28.52ZM181.268 27.416C180.478 27.416 179.865 27.2293 179.428 26.856C178.99 26.472 178.766 25.9227 178.756 25.208H179.796C179.806 25.6027 179.94 25.9227 180.196 26.168C180.462 26.4027 180.814 26.52 181.252 26.52C181.689 26.52 182.041 26.4027 182.308 26.168C182.574 25.9227 182.713 25.6027 182.724 25.208H183.796C183.785 25.9227 183.556 26.472 183.108 26.856C182.66 27.2293 182.046 27.416 181.268 27.416ZM87.3649 45.52V54H85.8289V46.864H81.0449V54H79.5089V45.52H87.3649ZM93.8091 54.096C92.9664 54.096 92.2091 53.9093 91.5371 53.536C90.8651 53.1627 90.3371 52.6507 89.9531 52C89.5797 51.3387 89.3931 50.592 89.3931 49.76C89.3931 48.928 89.5797 48.1867 89.9531 47.536C90.3371 46.8747 90.8651 46.3627 91.5371 46C92.2091 45.6267 92.9664 45.44 93.8091 45.44C94.6517 45.44 95.4037 45.6267 96.0651 46C96.7371 46.3627 97.2597 46.8747 97.6331 47.536C98.0171 48.1867 98.2091 48.928 98.2091 49.76C98.2091 50.592 98.0171 51.3387 97.6331 52C97.2597 52.6507 96.7371 53.1627 96.0651 53.536C95.4037 53.9093 94.6517 54.096 93.8091 54.096ZM93.8091 52.752C94.3531 52.752 94.8384 52.6293 95.2651 52.384C95.7024 52.128 96.0437 51.776 96.2891 51.328C96.5344 50.8693 96.6571 50.3467 96.6571 49.76C96.6571 49.1733 96.5344 48.656 96.2891 48.208C96.0437 47.7493 95.7024 47.3973 95.2651 47.152C94.8384 46.9067 94.3531 46.784 93.8091 46.784C93.2651 46.784 92.7744 46.9067 92.3371 47.152C91.9104 47.3973 91.5691 47.7493 91.3131 48.208C91.0677 48.656 90.9451 49.1733 90.9451 49.76C90.9451 50.3467 91.0677 50.8693 91.3131 51.328C91.5691 51.776 91.9104 52.128 92.3371 52.384C92.7744 52.6293 93.2651 52.752 93.8091 52.752ZM103.563 50.416H101.803V54H100.267V45.52H101.803V49.104H103.595L106.347 45.52H107.995L104.779 49.6L108.219 54H106.411L103.563 50.416ZM116.753 45.52L112.641 54.848C112.279 55.712 111.852 56.32 111.361 56.672C110.881 57.024 110.3 57.2 109.617 57.2C109.201 57.2 108.796 57.1307 108.401 56.992C108.017 56.864 107.697 56.672 107.441 56.416L108.097 55.264C108.535 55.68 109.041 55.888 109.617 55.888C109.991 55.888 110.3 55.7867 110.545 55.584C110.801 55.392 111.031 55.056 111.233 54.576L111.505 53.984L107.761 45.52H109.361L112.321 52.304L115.249 45.52H116.753ZM126.022 45.52V54H124.486V46.864H119.702V54H118.166V45.52H126.022ZM132.13 50.416H130.37V54H128.834V45.52H130.37V49.104H132.162L134.914 45.52H136.562L133.346 49.6L136.786 54H134.978L132.13 50.416ZM138.236 45.52H139.772V51.696L144.972 45.52H146.364V54H144.828V47.824L139.644 54H138.236V45.52ZM148.946 42.8H150.754L150.45 50.464H149.234L148.946 42.8ZM149.858 54.096C149.559 54.096 149.308 54 149.106 53.808C148.903 53.6053 148.802 53.36 148.802 53.072C148.802 52.784 148.903 52.544 149.106 52.352C149.308 52.1493 149.559 52.048 149.858 52.048C150.156 52.048 150.402 52.1493 150.594 52.352C150.786 52.544 150.882 52.784 150.882 53.072C150.882 53.36 150.78 53.6053 150.578 53.808C150.386 54 150.146 54.096 149.858 54.096Z" fill="#252525"/>
<path d="M49.8566 70.8V82H48.7046V71.824H46.0646V70.8H49.8566ZM61.2654 73.792C62.044 73.792 62.7374 73.968 63.3454 74.32C63.964 74.6613 64.444 75.1467 64.7854 75.776C65.1267 76.3947 65.2974 77.104 65.2974 77.904C65.2974 78.7253 65.116 79.456 64.7534 80.096C64.4014 80.7253 63.9054 81.216 63.2654 81.568C62.6254 81.92 61.8894 82.096 61.0574 82.096C59.66 82.096 58.5774 81.6053 57.8094 80.624C57.0414 79.6427 56.6574 78.288 56.6574 76.56C56.6574 74.7573 56.9987 73.376 57.6814 72.416C58.3747 71.456 59.452 70.8053 60.9134 70.464L64.6894 69.6L64.8814 70.64L61.3294 71.456C60.124 71.7227 59.2387 72.1973 58.6734 72.88C58.108 73.552 57.7987 74.5493 57.7454 75.872C58.0867 75.2213 58.5614 74.7147 59.1694 74.352C59.7774 73.9787 60.476 73.792 61.2654 73.792ZM61.0894 81.152C61.676 81.152 62.1987 81.0187 62.6574 80.752C63.1267 80.4747 63.4894 80.0907 63.7454 79.6C64.012 79.1093 64.1454 78.5547 64.1454 77.936C64.1454 77.3173 64.0174 76.7733 63.7614 76.304C63.5054 75.8347 63.1427 75.472 62.6734 75.216C62.2147 74.9493 61.6867 74.816 61.0894 74.816C60.492 74.816 59.9587 74.9493 59.4894 75.216C59.0307 75.472 58.668 75.8347 58.4014 76.304C58.1454 76.7733 58.0174 77.3173 58.0174 77.936C58.0174 78.5547 58.1454 79.1093 58.4014 79.6C58.668 80.0907 59.036 80.4747 59.5054 80.752C59.9747 81.0187 60.5027 81.152 61.0894 81.152ZM71.0442 82.08C70.2336 82.08 69.5029 81.8987 68.8522 81.536C68.2016 81.1627 67.6896 80.6507 67.3162 80C66.9429 79.3493 66.7562 78.6133 66.7562 77.792C66.7562 76.9707 66.9429 76.2347 67.3162 75.584C67.6896 74.9333 68.2016 74.4267 68.8522 74.064C69.5029 73.7013 70.2336 73.52 71.0442 73.52C71.8549 73.52 72.5856 73.7013 73.2362 74.064C73.8869 74.4267 74.3936 74.9333 74.7562 75.584C75.1296 76.2347 75.3162 76.9707 75.3162 77.792C75.3162 78.6133 75.1296 79.3493 74.7562 80C74.3936 80.6507 73.8869 81.1627 73.2362 81.536C72.5856 81.8987 71.8549 82.08 71.0442 82.08ZM71.0442 81.072C71.6416 81.072 72.1749 80.9387 72.6442 80.672C73.1242 80.3947 73.4976 80.0053 73.7642 79.504C74.0309 79.0027 74.1642 78.432 74.1642 77.792C74.1642 77.152 74.0309 76.5813 73.7642 76.08C73.4976 75.5787 73.1242 75.1947 72.6442 74.928C72.1749 74.6507 71.6416 74.512 71.0442 74.512C70.4469 74.512 69.9082 74.6507 69.4282 74.928C68.9589 75.1947 68.5856 75.5787 68.3082 76.08C68.0416 76.5813 67.9082 77.152 67.9082 77.792C67.9082 78.432 68.0416 79.0027 68.3082 79.504C68.5856 80.0053 68.9589 80.3947 69.4282 80.672C69.9082 80.9387 70.4469 81.072 71.0442 81.072ZM77.5841 73.584H78.7201V77.312H84.0161V73.584H85.1521V82H84.0161V78.288H78.7201V82H77.5841V73.584ZM95.373 73.584L91.165 83.008C90.8237 83.7973 90.429 84.3573 89.981 84.688C89.533 85.0187 88.9943 85.184 88.365 85.184C87.9597 85.184 87.581 85.12 87.229 84.992C86.877 84.864 86.573 84.672 86.317 84.416L86.845 83.568C87.2717 83.9947 87.7837 84.208 88.381 84.208C88.765 84.208 89.0903 84.1013 89.357 83.888C89.6343 83.6747 89.8903 83.312 90.125 82.8L90.493 81.984L86.733 73.584H87.917L91.085 80.736L94.253 73.584H95.373ZM100.268 82.08C99.4365 82.08 98.6898 81.8987 98.0285 81.536C97.3778 81.1733 96.8658 80.6667 96.4925 80.016C96.1192 79.3547 95.9325 78.6133 95.9325 77.792C95.9325 76.9707 96.1192 76.2347 96.4925 75.584C96.8658 74.9333 97.3778 74.4267 98.0285 74.064C98.6898 73.7013 99.4365 73.52 100.268 73.52C100.994 73.52 101.639 73.664 102.205 73.952C102.781 74.2293 103.234 74.64 103.564 75.184L102.717 75.76C102.439 75.344 102.087 75.0347 101.661 74.832C101.234 74.6187 100.77 74.512 100.268 74.512C99.6605 74.512 99.1112 74.6507 98.6205 74.928C98.1405 75.1947 97.7618 75.5787 97.4845 76.08C97.2178 76.5813 97.0845 77.152 97.0845 77.792C97.0845 78.4427 97.2178 79.0187 97.4845 79.52C97.7618 80.0107 98.1405 80.3947 98.6205 80.672C99.1112 80.9387 99.6605 81.072 100.268 81.072C100.77 81.072 101.234 80.9707 101.661 80.768C102.087 80.5653 102.439 80.256 102.717 79.84L103.564 80.416C103.234 80.96 102.781 81.376 102.205 81.664C101.628 81.9413 100.983 82.08 100.268 82.08ZM109.136 74.08H116.096V75.024H109.136V74.08ZM109.136 77.776H116.096V78.72H109.136V77.776ZM125.022 70.8V82H123.87V71.824H121.23V70.8H125.022ZM136.687 73.52C137.476 73.52 138.191 73.7013 138.831 74.064C139.471 74.416 139.972 74.9173 140.335 75.568C140.698 76.2187 140.879 76.96 140.879 77.792C140.879 78.6347 140.698 79.3813 140.335 80.032C139.972 80.6827 139.471 81.1893 138.831 81.552C138.202 81.904 137.487 82.08 136.687 82.08C136.004 82.08 135.386 81.9413 134.831 81.664C134.287 81.376 133.839 80.96 133.487 80.416V85.104H132.351V73.584H133.439V75.248C133.78 74.6933 134.228 74.2667 134.783 73.968C135.348 73.6693 135.983 73.52 136.687 73.52ZM136.607 81.072C137.194 81.072 137.727 80.9387 138.207 80.672C138.687 80.3947 139.06 80.0053 139.327 79.504C139.604 79.0027 139.743 78.432 139.743 77.792C139.743 77.152 139.604 76.5867 139.327 76.096C139.06 75.5947 138.687 75.2053 138.207 74.928C137.727 74.6507 137.194 74.512 136.607 74.512C136.01 74.512 135.471 74.6507 134.991 74.928C134.522 75.2053 134.148 75.5947 133.871 76.096C133.604 76.5867 133.471 77.152 133.471 77.792C133.471 78.432 133.604 79.0027 133.871 79.504C134.148 80.0053 134.522 80.3947 134.991 80.672C135.471 80.9387 136.01 81.072 136.607 81.072ZM150.077 73.584L145.869 83.008C145.528 83.7973 145.133 84.3573 144.685 84.688C144.237 85.0187 143.699 85.184 143.069 85.184C142.664 85.184 142.285 85.12 141.933 84.992C141.581 84.864 141.277 84.672 141.021 84.416L141.549 83.568C141.976 83.9947 142.488 84.208 143.085 84.208C143.469 84.208 143.795 84.1013 144.061 83.888C144.339 83.6747 144.595 83.312 144.829 82.8L145.197 81.984L141.437 73.584H142.621L145.789 80.736L148.957 73.584H150.077ZM155.642 73.792C156.421 73.792 157.114 73.968 157.722 74.32C158.341 74.6613 158.821 75.1467 159.162 75.776C159.504 76.3947 159.674 77.104 159.674 77.904C159.674 78.7253 159.493 79.456 159.13 80.096C158.778 80.7253 158.282 81.216 157.642 81.568C157.002 81.92 156.266 82.096 155.434 82.096C154.037 82.096 152.954 81.6053 152.186 80.624C151.418 79.6427 151.034 78.288 151.034 76.56C151.034 74.7573 151.376 73.376 152.058 72.416C152.752 71.456 153.829 70.8053 155.29 70.464L159.066 69.6L159.258 70.64L155.706 71.456C154.501 71.7227 153.616 72.1973 153.05 72.88C152.485 73.552 152.176 74.5493 152.122 75.872C152.464 75.2213 152.938 74.7147 153.546 74.352C154.154 73.9787 154.853 73.792 155.642 73.792ZM155.466 81.152C156.053 81.152 156.576 81.0187 157.034 80.752C157.504 80.4747 157.866 80.0907 158.122 79.6C158.389 79.1093 158.522 78.5547 158.522 77.936C158.522 77.3173 158.394 76.7733 158.138 76.304C157.882 75.8347 157.52 75.472 157.05 75.216C156.592 74.9493 156.064 74.816 155.466 74.816C154.869 74.816 154.336 74.9493 153.866 75.216C153.408 75.472 153.045 75.8347 152.778 76.304C152.522 76.7733 152.394 77.3173 152.394 77.936C152.394 78.5547 152.522 79.1093 152.778 79.6C153.045 80.0907 153.413 80.4747 153.882 80.752C154.352 81.0187 154.88 81.152 155.466 81.152ZM168.782 73.584V82H167.646V74.592H163.614L163.502 76.672C163.417 78.4213 163.214 79.7653 162.894 80.704C162.574 81.6427 162.004 82.112 161.182 82.112C160.958 82.112 160.686 82.0693 160.366 81.984L160.446 81.008C160.638 81.0507 160.772 81.072 160.846 81.072C161.284 81.072 161.614 80.8693 161.838 80.464C162.062 80.0587 162.212 79.5573 162.286 78.96C162.361 78.3627 162.425 77.5733 162.478 76.592L162.622 73.584H168.782ZM179.084 73.52C179.873 73.52 180.582 73.7013 181.212 74.064C181.852 74.4267 182.353 74.9333 182.716 75.584C183.078 76.2347 183.26 76.9707 183.26 77.792C183.26 78.6133 183.078 79.3493 182.716 80C182.353 80.6507 181.852 81.1627 181.212 81.536C180.582 81.8987 179.873 82.08 179.084 82.08C178.337 82.08 177.66 81.92 177.052 81.6C176.444 81.2693 175.948 80.816 175.564 80.24C175.19 79.664 174.972 79.0027 174.908 78.256H172.988V82H171.852V73.584H172.988V77.216H174.924C175.009 76.4907 175.238 75.8507 175.612 75.296C175.996 74.7307 176.486 74.2933 177.084 73.984C177.681 73.6747 178.348 73.52 179.084 73.52ZM179.084 81.088C179.66 81.088 180.177 80.9493 180.636 80.672C181.105 80.3947 181.473 80.0053 181.74 79.504C182.006 79.0027 182.14 78.432 182.14 77.792C182.14 77.152 182.006 76.5813 181.74 76.08C181.473 75.5787 181.105 75.1947 180.636 74.928C180.177 74.6507 179.66 74.512 179.084 74.512C178.508 74.512 177.985 74.6507 177.516 74.928C177.057 75.1947 176.694 75.5787 176.428 76.08C176.161 76.5813 176.028 77.152 176.028 77.792C176.028 78.432 176.161 79.0027 176.428 79.504C176.694 80.0053 177.057 80.3947 177.516 80.672C177.985 80.9493 178.508 81.088 179.084 81.088Z" fill="#252525"/>
</svg>
