<svg width="18" height="18" viewBox="0 0 18 18" fill="none" xmlns="http://www.w3.org/2000/svg">
<g clip-path="url(#clip0)">
<path d="M3.91189 2.49414L0.664617 4.2176C0.609 4.24675 0.556477 4.27994 0.506836 4.31625L8.81042 8.6462L12.2876 6.92636L3.91189 2.49414Z" fill="#252525"/>
<path d="M17.9984 5.27783L13.8443 7.3325V9.64729C13.8443 9.93842 13.6082 10.1745 13.3171 10.1745C13.026 10.1745 12.7899 9.93842 12.7899 9.64729V7.85401L9.33105 9.56482V17.9424C9.34188 17.9373 9.35285 17.9327 9.36357 17.9274L17.3153 13.8983C17.7377 13.6871 18 13.2627 18 12.7902V5.32441C18 5.30877 17.999 5.29334 17.9984 5.27783Z" fill="#252525"/>
<path d="M17.3143 4.21632L9.36591 0.188926L9.3626 0.187273C9.00868 0.0110704 8.58815 0.0150079 8.23753 0.19782L5.03613 1.89689L13.4515 6.35009L17.5134 4.34102C17.4518 4.29405 17.3856 4.2519 17.3143 4.21632Z" fill="#252525"/>
<path d="M0.00249609 5.24243C0.00108984 5.26658 0 5.29077 0 5.31517V12.7993C0 13.262 0.254531 13.6823 0.664312 13.8969L8.23503 17.915L8.23845 17.9168C8.25103 17.9233 8.2639 17.9291 8.27666 17.9352V9.55702L0.00249609 5.24243Z" fill="#252525"/>
</g>
<defs>
<clipPath id="clip0">
<rect width="18" height="18" fill="white"/>
</clipPath>
</defs>
</svg>
