<svg width="128" height="24" viewBox="0 0 128 24" fill="none" xmlns="http://www.w3.org/2000/svg">
<path fill-rule="evenodd" clip-rule="evenodd" d="M34.9868 6.5305V5.78039C34.9868 5.60866 34.9868 5.4055 34.9868 5.15552C34.9868 4.91095 34.9815 4.65573 34.966 4.39003C34.9555 4.12433 34.9295 3.87452 34.893 3.6455C34.8566 3.41631 34.8046 3.22887 34.7368 3.09348C34.5909 2.83294 34.4035 2.60912 34.1795 2.43202C33.9505 2.25491 33.7108 2.08832 33.4558 1.93739C32.9766 1.67172 32.4506 1.43741 31.878 1.23428C31.305 1.03115 30.7114 0.864551 30.0969 0.723961C29.4825 0.588542 28.873 0.484477 28.2689 0.416768C27.6701 0.349059 27.092 0.312534 26.5505 0.312534C25.1289 0.312534 23.7748 0.494822 22.4937 0.848867C21.2074 1.2031 20.0358 1.72375 18.9681 2.40084C17.8955 3.07776 16.9738 3.90579 16.1874 4.87951C15.4009 5.85357 14.7918 6.96268 14.3649 8.20193C14.1431 8.83761 13.9773 9.50473 13.8681 10.2035C13.3752 9.13627 12.7406 7.86355 12.0038 6.87496C9.86841 3.99824 7.82244 1.87777 4.14576 0.576644C3.31942 0.285829 1.19281 -0.311148 0.510647 0.501363C-0.441441 1.64071 1.18301 4.6559 1.39665 6.70847C1.70359 9.6413 1.66826 13.3161 9.40581 12.0911C4.99321 13.9728 -0.095116 16.6715 3.01366 21.2428C4.56678 23.5215 7.28495 24.5073 10.1955 22.8436C12.1967 21.7003 12.6596 18.3742 13.7407 16.4107L14.127 15.5558C14.1902 15.7875 14.2607 16.0145 14.3386 16.2373C14.7553 17.4299 15.3386 18.4871 16.0938 19.414C16.8488 20.3357 17.7393 21.1116 18.7703 21.747C19.8014 22.3823 20.9316 22.8615 22.1656 23.1896C23.405 23.5175 24.707 23.6841 26.0818 23.6841C26.8786 23.6841 27.6128 23.6373 28.2846 23.5487C28.9615 23.4549 29.6282 23.3197 30.2843 23.1321C30.9404 22.9499 31.6331 22.7155 32.3622 22.4344C32.5808 22.3666 32.8465 22.2677 33.1588 22.1374C33.4713 22.0075 33.7943 21.8511 34.1327 21.674C34.466 21.4968 34.7838 21.2991 35.0752 21.0804C35.3721 20.8617 35.6118 20.6325 35.794 20.3877C35.9814 20.1378 36.0753 19.8879 36.0803 19.6222C36.0803 19.5389 36.0648 19.44 36.0438 19.3255C36.023 19.2109 36.0024 19.112 35.9867 19.0285C35.8616 18.5182 35.7732 18.0183 35.721 17.5237C35.6689 17.0342 35.6429 16.5238 35.6429 15.9978L35.8303 13.8732C35.8669 13.6596 35.8981 13.4251 35.9346 13.1701C35.9657 12.9098 35.9867 12.6754 35.9867 12.4671C35.9918 12.2483 35.9502 12.0765 35.8721 11.9412C35.794 11.8058 35.6532 11.7015 35.4555 11.6234C35.268 11.5609 35.0283 11.514 34.7368 11.4828C34.44 11.4515 34.1379 11.4309 33.8359 11.4202C33.5286 11.4099 33.2683 11.4047 33.0495 11.4047H28.1127C27.8888 11.3994 27.6493 11.4099 27.389 11.4255C27.1284 11.4412 26.8785 11.488 26.6441 11.5609C26.4099 11.6337 26.2172 11.7588 26.0661 11.9307C25.9151 12.1026 25.8371 12.3471 25.8318 12.6546C25.8371 12.993 25.9204 13.2482 26.0818 13.4096C26.2432 13.5762 26.4464 13.6856 26.6964 13.7377C26.9463 13.7897 27.2119 13.8157 27.4879 13.8107C27.6128 13.8107 27.7429 13.8107 27.8732 13.8107C28.0034 13.8107 28.1285 13.8107 28.2378 13.8107C28.7636 13.8054 29.1803 13.847 29.4928 13.9303C29.7999 14.0084 30.0291 14.1438 30.1749 14.3367C30.3208 14.5292 30.4197 14.7896 30.4614 15.1177C30.503 15.4407 30.524 15.8519 30.5187 16.3416C30.524 16.753 30.5082 17.185 30.477 17.6381C30.4457 18.086 30.3676 18.5182 30.2373 18.9296C30.1073 19.3462 29.8989 19.7003 29.6124 19.9971C29.3471 20.2681 29.0241 20.4868 28.6544 20.6482C28.2794 20.8149 27.894 20.9345 27.4929 21.0126C27.087 21.0856 26.7119 21.122 26.363 21.122C25.4517 21.1169 24.634 20.9294 23.9155 20.5752C23.1968 20.216 22.5719 19.7316 22.0407 19.1223C21.5096 18.5131 21.0668 17.8256 20.718 17.0602C20.3691 16.2948 20.1086 15.4978 19.9368 14.6698C19.7598 13.847 19.6765 13.0347 19.6765 12.2483C19.6765 11.3474 19.7701 10.4414 19.9525 9.53516C20.1347 8.62904 20.4212 7.76451 20.8013 6.94189C21.1814 6.11893 21.6657 5.38978 22.2542 4.74413C22.8425 4.10371 23.5406 3.59327 24.3477 3.22346C25.1549 2.85379 26.0765 2.66116 27.113 2.65601C27.7639 2.65601 28.4045 2.7549 29.0344 2.9632C29.6699 3.17157 30.248 3.48409 30.7685 3.90579C31.076 4.15577 31.3363 4.41099 31.555 4.68176C31.7685 4.95236 31.9559 5.23378 32.1226 5.53581C32.284 5.83261 32.4506 6.15561 32.612 6.49923C32.7057 6.69698 32.7997 6.87411 32.8985 7.03046C33.0026 7.18646 33.1277 7.30646 33.2734 7.39486C33.4193 7.48326 33.6069 7.53025 33.8307 7.53025C34.1589 7.52501 34.4192 7.43137 34.6066 7.25424C34.7991 7.07186 34.9242 6.83236 34.9868 6.5305ZM106.664 20.3722C107.419 21.0701 108.263 21.6689 109.195 22.1635C110.127 22.6531 111.101 23.028 112.122 23.2885C113.143 23.5487 114.168 23.6841 115.194 23.6841C116.538 23.6789 117.824 23.4914 119.048 23.1218C120.272 22.752 121.397 22.2209 122.428 21.5283C123.459 20.8356 124.354 20.0076 125.12 19.0391C125.88 18.0756 126.474 16.9925 126.896 15.7946C127.318 14.6022 127.531 13.3158 127.536 11.9357C127.531 10.5403 127.323 9.2436 126.911 8.051C126.5 6.85839 125.917 5.7858 125.167 4.83269C124.417 3.87976 123.537 3.06745 122.516 2.3955C121.495 1.72375 120.376 1.20825 119.152 0.854209C117.933 0.494822 116.642 0.317706 115.288 0.312534C113.945 0.317706 112.674 0.499993 111.466 0.864552C110.263 1.23428 109.159 1.76027 108.154 2.44237C107.154 3.12458 106.284 3.94754 105.55 4.90047C104.81 5.85864 104.243 6.92617 103.842 8.11353C103.435 9.29566 103.232 10.5714 103.227 11.9357C103.227 13.5658 103.508 15.0969 104.081 16.529C104.649 17.9611 105.508 19.2421 106.664 20.3722ZM121.568 12.0608C121.568 12.7224 121.532 13.4044 121.449 14.1127C121.365 14.8209 121.23 15.5239 121.037 16.2165C120.85 16.9091 120.6 17.5653 120.282 18.1797C119.97 18.7942 119.579 19.3359 119.121 19.8097C118.657 20.2836 118.116 20.6585 117.486 20.9294C116.855 21.2002 116.137 21.3354 115.319 21.3408C114.517 21.3354 113.809 21.1897 113.195 20.9034C112.58 20.6169 112.044 20.2211 111.596 19.7265C111.143 19.2266 110.762 18.6588 110.455 18.0237C110.143 17.3831 109.898 16.706 109.716 15.9978C109.528 15.2896 109.398 14.5812 109.315 13.8678C109.232 13.1598 109.195 12.4827 109.195 11.8421C109.19 10.8266 109.273 9.8372 109.45 8.86854C109.627 7.9053 109.934 6.96792 110.383 6.0618C110.716 5.40043 111.122 4.8119 111.601 4.30147C112.08 3.79119 112.632 3.39028 113.257 3.09855C113.882 2.80693 114.58 2.66116 115.351 2.65601C116.163 2.66116 116.882 2.80175 117.506 3.083C118.126 3.35901 118.673 3.73914 119.131 4.22355C119.589 4.71303 119.975 5.26505 120.287 5.89498C120.6 6.51985 120.85 7.18139 121.042 7.88451C121.23 8.5873 121.365 9.29566 121.449 10.0091C121.532 10.7173 121.568 11.4047 121.568 12.0608ZM98.0093 18.7214V10.9049H99.7902C100.077 10.91 100.363 10.8892 100.644 10.8371C100.925 10.7903 101.155 10.6808 101.342 10.509C101.53 10.3422 101.628 10.0769 101.634 9.71736C101.628 9.32676 101.53 9.04568 101.342 8.87395C101.155 8.70189 100.915 8.59253 100.623 8.55095C100.337 8.50938 100.035 8.49366 99.7277 8.4989H97.9155V4.8119C97.9207 4.39003 97.8947 4.07244 97.8321 3.86404C97.7696 3.65057 97.6239 3.50995 97.4052 3.4371C97.1863 3.36949 96.8478 3.33805 96.3843 3.34346C95.9834 3.34346 95.6761 3.39028 95.4524 3.48916C95.2335 3.58803 95.0721 3.75469 94.9629 3.97864C94.8535 4.20259 94.7649 4.49956 94.6972 4.87444C94.6554 5.14521 94.5929 5.45249 94.5045 5.80642C94.4212 6.15561 94.3169 6.49923 94.2026 6.8376C94.088 7.17615 93.9577 7.4574 93.8223 7.68642C93.666 7.92085 93.4785 8.09798 93.2703 8.22289C93.0568 8.34272 92.8276 8.43112 92.5726 8.48335C92.3224 8.54048 92.0621 8.5873 91.7914 8.62397C91.5622 8.66031 91.354 8.71761 91.1716 8.79046C90.9894 8.8633 90.8435 8.96759 90.7342 9.11329C90.6299 9.25915 90.578 9.46231 90.5728 9.71736C90.578 10.1029 90.6716 10.384 90.8488 10.5506C91.0259 10.7225 91.2497 10.8214 91.5257 10.8579C91.8017 10.8942 92.0882 10.91 92.385 10.9049H93.01V20.8409C93.01 21.3616 93.0516 21.7783 93.14 22.0958C93.2338 22.4134 93.3746 22.6531 93.5774 22.8145C93.7755 22.9761 94.041 23.0853 94.3691 23.1375C94.6972 23.1946 95.0981 23.2207 95.572 23.2154H99.7902C99.9882 23.2154 100.207 23.2104 100.436 23.1896C100.67 23.1686 100.889 23.1218 101.097 23.049C101.306 22.9761 101.477 22.8561 101.613 22.7001C101.748 22.5438 101.816 22.3303 101.821 22.0595C101.816 21.726 101.753 21.4762 101.628 21.3043C101.498 21.1272 101.337 21.0126 101.129 20.945C100.925 20.8826 100.702 20.846 100.462 20.8409C100.222 20.8356 99.9882 20.8356 99.759 20.8409C99.2382 20.8409 98.8476 20.7574 98.5976 20.596C98.3476 20.4346 98.181 20.1951 98.1081 19.8825C98.0353 19.5651 98.004 19.1796 98.0093 18.7214ZM88.6042 19.0285V14.1856C88.6094 13.4669 88.5364 12.8108 88.3802 12.2222C88.2241 11.6337 87.9636 11.1026 87.5992 10.6289C87.2346 10.1548 86.7347 9.73832 86.1046 9.37374C85.5995 9.0925 85.0631 8.87395 84.4902 8.70713C83.9227 8.54048 83.3394 8.42588 82.7509 8.35303C82.1571 8.28019 81.5792 8.24875 81.0117 8.24875C80.7512 8.24875 80.4179 8.2594 80.0065 8.2905C79.6002 8.31652 79.1577 8.36334 78.6785 8.43112C78.1995 8.4989 77.7256 8.59794 77.2516 8.71761C76.7779 8.83728 76.3455 8.99362 75.9499 9.18106C75.5592 9.36343 75.2415 9.59245 75.002 9.85291C74.7677 10.1184 74.6427 10.4257 74.6374 10.7798C74.6427 11.1392 74.7469 11.4309 74.9395 11.6444C75.1321 11.8629 75.3718 12.014 75.6635 12.1078C75.9499 12.2014 76.2466 12.2483 76.5434 12.2483C76.9288 12.2432 77.2569 12.1754 77.5329 12.0453C77.8089 11.9151 78.0587 11.7588 78.2828 11.5661C78.5015 11.3734 78.7253 11.186 78.9442 10.9935C79.1627 10.8006 79.4077 10.6392 79.6784 10.5143C79.944 10.384 80.2668 10.3164 80.6366 10.3111C81.2927 10.3164 81.8292 10.4568 82.2509 10.7328C82.6675 11.0141 82.9801 11.3944 83.178 11.8734C83.381 12.3578 83.48 12.9098 83.48 13.5294H82.4488C81.8811 13.5294 81.2719 13.5607 80.6156 13.6283C79.9647 13.6961 79.3088 13.8107 78.6422 13.9669C77.9756 14.123 77.3402 14.3367 76.7309 14.6022C76.1216 14.873 75.58 15.2061 75.1009 15.6021C74.6271 16.003 74.2468 16.477 73.9708 17.029C73.6897 17.5756 73.5491 18.2111 73.544 18.9348C73.5491 19.7265 73.7054 20.4138 74.0021 21.0075C74.3043 21.6011 74.7155 22.0959 75.2312 22.4917C75.7518 22.8875 76.3405 23.1896 76.9964 23.3873C77.6578 23.5853 78.3504 23.6841 79.0743 23.6841C79.7045 23.6841 80.3138 23.6113 80.9023 23.4603C81.4906 23.304 82.0374 23.054 82.5374 22.7104C83.0374 22.3666 83.4643 21.9084 83.8238 21.3408C83.8446 21.6846 83.8706 21.976 83.9017 22.2157C83.9382 22.4552 84.0006 22.6479 84.0996 22.7937C84.1987 22.9394 84.3601 23.049 84.5736 23.1166C84.7923 23.1843 85.0943 23.2154 85.4797 23.2154H88.5416C88.7866 23.2207 89.0365 23.2104 89.2916 23.1789C89.5416 23.1478 89.755 23.0643 89.9271 22.9291C90.0988 22.7883 90.1925 22.5645 90.1977 22.247C90.1925 21.9917 90.1196 21.7938 89.9739 21.6637C89.8279 21.5283 89.6404 21.4137 89.4165 21.3094C89.2759 21.2523 89.151 21.174 89.0416 21.0856C88.9322 20.9918 88.8384 20.872 88.7605 20.716C88.698 20.5752 88.6562 20.4035 88.6354 20.1951C88.6147 19.9868 88.6042 19.7786 88.6042 19.5702C88.6042 19.362 88.6042 19.1796 88.6042 19.0285ZM83.0737 15.4353H83.6362V16.4352C83.6414 16.8361 83.6362 17.2217 83.6206 17.5862C83.6049 17.9454 83.5478 18.2997 83.454 18.6485C83.3654 18.9974 83.204 19.3515 82.98 19.7161C82.8029 19.9921 82.5945 20.2368 82.3603 20.4555C82.1208 20.6795 81.8603 20.8566 81.5687 20.9866C81.2822 21.1169 80.9699 21.1794 80.6366 21.1845C80.22 21.1794 79.8659 21.0751 79.5794 20.8669C79.2931 20.6585 79.0743 20.3877 78.9232 20.0546C78.7775 19.7211 78.6993 19.3567 78.6993 18.9661C78.7047 18.3568 78.8347 17.8308 79.0796 17.3881C79.3296 16.9404 79.6627 16.5758 80.0793 16.2841C80.496 15.9978 80.9648 15.7842 81.4802 15.6435C81.9957 15.5031 82.5269 15.4353 83.0737 15.4353ZM65.8261 6.31161V19.0599C65.8261 19.2109 65.8261 19.3931 65.821 19.6065C65.8158 19.8202 65.8053 20.0336 65.7897 20.242C65.774 20.445 65.7429 20.6169 65.7012 20.7471C65.6336 20.8877 65.5347 20.9971 65.4044 21.0856C65.2741 21.174 65.1441 21.247 65.0138 21.3094C64.8055 21.4137 64.6284 21.5335 64.4878 21.6689C64.3421 21.8043 64.2692 21.9865 64.2638 22.2157C64.2692 22.5438 64.3629 22.778 64.5346 22.9186C64.7067 23.0593 64.9201 23.1478 65.1701 23.1789C65.4252 23.2104 65.6751 23.2207 65.9199 23.2154H70.7317C70.9869 23.2207 71.242 23.2104 71.492 23.1789C71.7472 23.1478 71.9554 23.0593 72.1275 22.9186C72.294 22.778 72.3825 22.5438 72.3878 22.2157C72.3825 21.9865 72.3149 21.8043 72.1794 21.6689C72.0492 21.5335 71.8775 21.4137 71.6691 21.3094C71.5389 21.247 71.4088 21.174 71.2785 21.0856C71.1483 20.9971 71.0495 20.8877 70.9817 20.7471C70.9296 20.6169 70.8931 20.445 70.8723 20.242C70.8514 20.0336 70.836 19.8202 70.8306 19.6065C70.8253 19.3931 70.8253 19.2109 70.8253 19.0599V2.99971C70.8253 2.90599 70.8253 2.79658 70.8253 2.67685C70.8253 2.56227 70.8253 2.43719 70.8253 2.31229C70.8253 2.05712 70.815 1.79663 70.789 1.52596C70.763 1.26029 70.7057 1.0103 70.6224 0.781157C70.539 0.546845 70.4139 0.364576 70.2475 0.218813C70.0756 0.0782225 69.8569 0.00534102 69.5756 0C69.3361 0 69.0601 0.0313528 68.7476 0.099062C68.43 0.16143 68.1019 0.239652 67.7634 0.333374C67.425 0.432284 67.0968 0.53133 66.7792 0.63024C66.4667 0.734305 66.1907 0.822855 65.9512 0.90625C65.8053 0.942589 65.6283 0.984286 65.4252 1.03115C65.222 1.08318 65.019 1.14572 64.8211 1.22394C64.6181 1.30716 64.4514 1.4114 64.3161 1.54682C64.1807 1.68205 64.1129 1.85399 64.1077 2.06229C64.1181 2.30176 64.1962 2.48406 64.3421 2.59863C64.493 2.71836 64.6649 2.81744 64.8576 2.90599C65.0346 3.00488 65.1804 3.09855 65.3001 3.18712C65.4201 3.28092 65.519 3.39028 65.5918 3.51519C65.6647 3.6455 65.7221 3.81722 65.7637 4.03069C65.7845 4.25465 65.8001 4.49956 65.8053 4.76492C65.8158 5.03585 65.821 5.30662 65.8261 5.57215C65.8261 5.84292 65.8261 6.08783 65.8261 6.31161ZM56.6399 6.31161V19.0599C56.6399 19.2109 56.6399 19.3931 56.6348 19.6065C56.6296 19.8202 56.6191 20.0336 56.6035 20.242C56.5878 20.445 56.5567 20.6169 56.515 20.7471C56.4474 20.8877 56.3483 20.9971 56.2182 21.0856C56.0878 21.174 55.9579 21.247 55.8276 21.3094C55.6193 21.4137 55.4422 21.5335 55.3016 21.6689C55.1559 21.8043 55.0829 21.9865 55.0776 22.2157C55.0829 22.5438 55.1767 22.778 55.3484 22.9186C55.5203 23.0593 55.7338 23.1478 55.9837 23.1789C56.239 23.2104 56.4889 23.2207 56.7337 23.2154H61.5455C61.8005 23.2207 62.0558 23.2104 62.3057 23.1789C62.561 23.1478 62.7692 23.0593 62.9411 22.9186C63.1077 22.778 63.1963 22.5438 63.2015 22.2157C63.1963 21.9865 63.1285 21.8043 62.9931 21.6689C62.863 21.5335 62.6911 21.4137 62.4829 21.3094C62.3526 21.247 62.2226 21.174 62.0923 21.0856C61.9621 20.9971 61.8631 20.8877 61.7955 20.7471C61.7434 20.6169 61.7069 20.445 61.6861 20.242C61.6652 20.0336 61.6496 19.8202 61.6444 19.6065C61.6391 19.3931 61.6391 19.2109 61.6391 19.0599V2.99971C61.6391 2.90599 61.6391 2.79658 61.6391 2.67685C61.6391 2.56227 61.6391 2.43719 61.6391 2.31229C61.6391 2.05712 61.6288 1.79663 61.6028 1.52596C61.5768 1.26029 61.5195 1.0103 61.436 0.781157C61.3528 0.546845 61.2277 0.364576 61.0611 0.218813C60.8894 0.0782225 60.6706 0.00534102 60.3894 0C60.1499 0 59.8739 0.0313528 59.5614 0.099062C59.2436 0.16143 58.9157 0.239652 58.5772 0.333374C58.2388 0.432284 57.9106 0.53133 57.593 0.63024C57.2805 0.734305 57.0044 0.822855 56.7649 0.90625C56.6191 0.942589 56.4421 0.984286 56.2389 1.03115C56.0358 1.08318 55.8326 1.14572 55.6349 1.22394C55.4319 1.30716 55.2652 1.4114 55.1298 1.54682C54.9943 1.68205 54.9267 1.85399 54.9214 2.06229C54.9318 2.30176 55.01 2.48406 55.1559 2.59863C55.3066 2.71836 55.4787 2.81744 55.6712 2.90599C55.8484 3.00488 55.9942 3.09855 56.1139 3.18712C56.2339 3.28092 56.3328 3.39028 56.4056 3.51519C56.4785 3.6455 56.5358 3.81722 56.5775 4.03069C56.5981 4.25465 56.6138 4.49956 56.6191 4.76492C56.6296 5.03585 56.6348 5.30662 56.6399 5.57215C56.6399 5.84292 56.6399 6.08783 56.6399 6.31161ZM52.4529 19.0285V14.1856C52.4582 13.4669 52.3851 12.8108 52.229 12.2222C52.0728 11.6337 51.8123 11.1026 51.4479 10.6289C51.0834 10.1548 50.5834 9.73832 49.9534 9.37374C49.4482 9.0925 48.9118 8.87395 48.339 8.70713C47.7714 8.54048 47.1881 8.42588 46.5996 8.35303C46.0058 8.28019 45.4279 8.24875 44.8604 8.24875C44.5999 8.24875 44.2666 8.2594 43.8552 8.2905C43.4489 8.31652 43.0064 8.36334 42.5272 8.43112C42.0482 8.4989 41.5743 8.59794 41.1004 8.71761C40.6266 8.83728 40.1943 8.99362 39.7986 9.18106C39.408 9.36343 39.0902 9.59245 38.8507 9.85291C38.6165 10.1184 38.4914 10.4257 38.4861 10.7798C38.4914 11.1392 38.5957 11.4309 38.7882 11.6444C38.9809 11.8629 39.2205 12.014 39.5123 12.1078C39.7986 12.2014 40.0954 12.2483 40.3922 12.2483C40.7775 12.2432 41.1056 12.1754 41.3816 12.0453C41.6576 11.9151 41.9074 11.7588 42.1316 11.5661C42.3503 11.3734 42.5741 11.186 42.7929 10.9935C43.0115 10.8006 43.2564 10.6392 43.5272 10.5143C43.7927 10.384 44.1155 10.3164 44.4853 10.3111C45.1415 10.3164 45.6779 10.4568 46.0996 10.7328C46.5163 11.0141 46.8288 11.3944 47.0267 11.8734C47.2297 12.3578 47.3287 12.9098 47.3287 13.5294H46.2976C45.7298 13.5294 45.1207 13.5607 44.4644 13.6283C43.8135 13.6961 43.1575 13.8107 42.4909 13.9669C41.8243 14.123 41.1889 14.3367 40.5796 14.6022C39.9703 14.873 39.4288 15.2061 38.9496 15.6021C38.4758 16.003 38.0957 16.477 37.8197 17.029C37.5384 17.5756 37.3978 18.2111 37.3928 18.9348C37.3978 19.7265 37.5542 20.4138 37.8508 21.0075C38.153 21.6011 38.5642 22.0959 39.0799 22.4917C39.6005 22.8875 40.1892 23.1896 40.8452 23.3873C41.5065 23.5853 42.1992 23.6841 42.9231 23.6841C43.5532 23.6841 44.1625 23.6113 44.751 23.4603C45.3394 23.304 45.8862 23.054 46.3861 22.7104C46.8861 22.3666 47.313 21.9084 47.6725 21.3408C47.6933 21.6846 47.7193 21.976 47.7504 22.2157C47.787 22.4552 47.8493 22.6479 47.9484 22.7937C48.0474 22.9394 48.2088 23.049 48.4223 23.1166C48.641 23.1843 48.943 23.2154 49.3284 23.2154H52.3904C52.6353 23.2207 52.8853 23.2104 53.1403 23.1789C53.3903 23.1478 53.6038 23.0643 53.7758 22.9291C53.9475 22.7883 54.0412 22.5645 54.0464 22.247C54.0412 21.9917 53.9683 21.7938 53.8227 21.6637C53.6766 21.5283 53.4892 21.4137 53.2652 21.3094C53.1246 21.2523 52.9999 21.174 52.8903 21.0856C52.781 20.9918 52.6872 20.872 52.6093 20.716C52.5467 20.5752 52.505 20.4035 52.4842 20.1951C52.4634 19.9868 52.4529 19.7786 52.4529 19.5702C52.4529 19.362 52.4529 19.1796 52.4529 19.0285ZM46.9224 15.4353H47.4849V16.4352C47.4902 16.8361 47.4849 17.2217 47.4694 17.5862C47.4537 17.9454 47.3965 18.2997 47.3027 18.6485C47.2141 18.9974 47.0527 19.3515 46.8288 19.7161C46.6516 19.9921 46.4434 20.2368 46.209 20.4555C45.9695 20.6795 45.709 20.8566 45.4175 20.9866C45.131 21.1169 44.8186 21.1794 44.4853 21.1845C44.0687 21.1794 43.7146 21.0751 43.4281 20.8669C43.1418 20.6585 42.9231 20.3877 42.772 20.0546C42.6263 19.7211 42.548 19.3567 42.548 18.9661C42.5534 18.3568 42.6836 17.8308 42.9283 17.3881C43.1783 16.9404 43.5114 16.5758 43.9281 16.2841C44.3447 15.9978 44.8136 15.7842 45.3289 15.6435C45.8444 15.5031 46.3756 15.4353 46.9224 15.4353Z" fill="#252525"/>
<path fill-rule="evenodd" clip-rule="evenodd" d="M14.0022 10.0944L13.983 10.2116C13.4781 9.14471 12.8284 7.87267 12.0737 6.88441C9.88695 4.00888 7.79178 1.8891 4.02636 0.588595C3.18025 0.297999 1.00243 -0.298775 0.303876 0.513364C-0.671029 1.65224 0.992465 4.66636 1.21135 6.71809C1.52572 9.64957 1.48939 13.323 9.41303 12.0983C4.89446 13.9793 -0.316423 16.6771 2.86723 21.2465C4.45787 23.5242 7.24129 24.5096 10.2218 22.8465C12.2713 21.7039 12.7456 18.3789 13.8525 16.4163L14.1823 15.7039C14.0486 13.8431 13.975 11.9827 14.0022 10.1221V10.0944Z" fill="#FF0000"/>
</svg>
