<svg width="35" height="35" viewBox="0 0 35 35" fill="none" xmlns="http://www.w3.org/2000/svg">
<path d="M31.9238 0C31.4274 0 3.57071 0 3.07617 0C1.38 0 0 1.38 0 3.07617V4.63856C0 7.16919 0.870514 9.65122 2.45159 11.6272C3.76644 13.2708 5.63671 14.5581 7.71793 15.2519L8.80474 15.614C10.067 17.6706 12.0467 19.2549 14.4238 20.0074V21.6016C14.4238 22.1669 13.9637 22.627 13.3984 22.627C11.7023 22.627 10.3223 24.007 10.3223 25.7031V26.7285H9.29688C8.73051 26.7285 8.27148 27.1875 8.27148 27.7539V32.9492H7.24609C6.67973 32.9492 6.2207 33.4082 6.2207 33.9746C6.2207 34.541 6.67973 35 7.24609 35H27.7539C28.3203 35 28.7793 34.541 28.7793 33.9746C28.7793 33.4082 28.3203 32.9492 27.7539 32.9492H26.7285V27.7539C26.7285 27.1875 26.2695 26.7285 25.7031 26.7285H24.6777V25.7031C24.6777 24.007 23.2977 22.627 21.6016 22.627C21.0363 22.627 20.5762 22.1669 20.5762 21.6016V20.0074C22.9506 19.2557 24.9285 17.6744 26.191 15.6209L27.3371 15.2562C27.3413 15.2548 27.3459 15.2532 27.3502 15.2519C29.4007 14.5683 31.1983 13.3149 32.5484 11.6272C34.1295 9.65122 35 7.16919 35 4.63856V3.07617C35 1.38 33.62 0 31.9238 0ZM4.05296 10.346C2.76188 8.73211 2.05078 6.70536 2.05078 4.63856V3.07617C2.05078 2.51087 2.51087 2.05078 3.07617 2.05078H6.32832L7.37186 11.4427C7.43301 11.992 7.53956 12.5285 7.68536 13.0492C6.25141 12.4465 4.97955 11.5041 4.05296 10.346ZM10.3223 32.9492V28.7793H24.6777V32.9492H10.3223ZM19.3209 18.2258C18.8552 18.3329 18.5254 18.7473 18.5254 19.225V21.6016C18.5254 23.2977 19.9054 24.6777 21.6016 24.6777C22.1669 24.6777 22.627 25.1378 22.627 25.7031V26.7285H12.373V25.7031C12.373 25.1378 12.8331 24.6777 13.3984 24.6777C15.0946 24.6777 16.4746 23.2977 16.4746 21.6016V19.225C16.4746 18.7473 16.1448 18.3329 15.6791 18.2258C12.309 17.4503 9.78981 14.6334 9.4101 11.2163L8.39165 2.05078H26.6084L25.5899 11.2163C25.2102 14.6334 22.691 17.4503 19.3209 18.2258ZM32.9492 4.63856C32.9492 6.70536 32.2381 8.73211 30.947 10.346C29.9791 11.5562 28.7294 12.4924 27.3056 13.0809C27.4562 12.5501 27.5657 12.0032 27.6281 11.4427L28.6717 2.05078H31.9238C32.4891 2.05078 32.9492 2.51087 32.9492 3.07617V4.63856Z" fill="white"/>
<path d="M21.7455 7.02126L19.4413 6.69441L18.4151 4.66446C18.2408 4.31919 17.8867 4.10156 17.5 4.10156C17.1134 4.10156 16.7593 4.31919 16.5849 4.66446L15.5587 6.69441L13.2543 7.02126C12.8652 7.07653 12.5418 7.34943 12.4219 7.72381C12.302 8.09818 12.4067 8.50834 12.6914 8.77911L14.3443 10.3522L13.9552 12.5666C13.8879 12.9501 14.0433 13.3386 14.3566 13.5696C14.6706 13.8008 15.0877 13.8337 15.4332 13.6564L17.5 12.5955L19.5666 13.6564C19.9129 13.8342 20.33 13.8006 20.6432 13.5696C20.9567 13.3384 21.1121 12.9501 21.0448 12.5666L20.6558 10.3522L22.3084 8.77911C22.5933 8.50807 22.698 8.09818 22.5781 7.72381C22.4582 7.34943 22.1348 7.07653 21.7455 7.02126ZM18.844 9.24534C18.5951 9.48219 18.4814 9.82746 18.5409 10.1658L18.668 10.89L17.9681 10.5308C17.6744 10.3799 17.3257 10.3799 17.0317 10.5308L16.3318 10.89L16.4591 10.1658C16.5184 9.82746 16.4047 9.48219 16.1561 9.24534L15.6399 8.75427L16.3766 8.6496C16.7086 8.6026 16.9964 8.39619 17.1475 8.09711L17.5 7.3999L17.8522 8.09685C18.0036 8.39619 18.2915 8.6026 18.6234 8.6496L19.3601 8.75401L18.844 9.24534Z" fill="white"/>
</svg>
