<svg width="171" height="32" viewBox="0 0 171 32" fill="none" xmlns="http://www.w3.org/2000/svg">
<path fill-rule="evenodd" clip-rule="evenodd" d="M46.91 8.75607V7.75032C46.91 7.52008 46.91 7.24768 46.91 6.91251C46.91 6.58458 46.903 6.24239 46.8821 5.88614C46.8681 5.52989 46.8332 5.19495 46.7842 4.88787C46.7355 4.58058 46.6657 4.32925 46.5748 4.14773C46.3793 3.79839 46.1279 3.4983 45.8277 3.26085C45.5206 3.02337 45.1993 2.80002 44.8573 2.59764C44.2148 2.24144 43.5096 1.92727 42.7418 1.65492C41.9735 1.38257 41.1776 1.15919 40.3536 0.970684C39.5299 0.789116 38.7127 0.649586 37.9027 0.558801C37.0998 0.468017 36.3248 0.419044 35.5987 0.419044C33.6926 0.419044 31.8771 0.663456 30.1593 1.13816C28.4347 1.61311 26.8638 2.31119 25.4322 3.21904C23.9941 4.12665 22.7583 5.23687 21.7039 6.54243C20.6494 7.84845 19.8327 9.33554 19.2602 10.9971C18.9629 11.8494 18.7406 12.7439 18.5942 13.6808C17.9333 12.2499 17.0824 10.5434 16.0945 9.21792C13.2314 5.36083 10.4882 2.51771 5.55848 0.773162C4.45053 0.383238 1.59918 -0.417186 0.684542 0.672226C-0.592014 2.19986 1.58604 6.24261 1.87249 8.9947C2.28403 12.927 2.23667 17.8542 12.6111 16.2117C6.69475 18.7346 -0.127663 22.3531 4.04058 28.4823C6.123 31.5376 9.76751 32.8592 13.6699 30.6286C16.3531 29.0958 16.9738 24.6361 18.4233 22.0034L18.9414 20.8572C19.0261 21.1679 19.1206 21.4722 19.2251 21.7709C19.7837 23.37 20.5658 24.7875 21.5783 26.0303C22.5906 27.266 23.7847 28.3064 25.1671 29.1583C26.5495 30.0102 28.0649 30.6526 29.7194 31.0925C31.3813 31.5322 33.1269 31.7556 34.9703 31.7556C36.0386 31.7556 37.023 31.6928 37.9238 31.5741C38.8314 31.4483 39.7252 31.267 40.605 31.0155C41.4847 30.7712 42.4134 30.4568 43.391 30.08C43.6841 29.9891 44.0403 29.8565 44.4591 29.6818C44.8781 29.5075 45.3112 29.2979 45.7649 29.0604C46.2118 28.8229 46.6378 28.5578 47.0285 28.2645C47.4267 27.9713 47.7481 27.664 47.9924 27.3358C48.2437 27.0006 48.3695 26.6657 48.3763 26.3095C48.3763 26.1977 48.3554 26.0652 48.3273 25.9115C48.2994 25.7579 48.2718 25.6253 48.2507 25.5133C48.083 24.8292 47.9645 24.1588 47.8945 23.4957C47.8246 22.8394 47.7898 22.155 47.7898 21.4498L48.0411 18.6012C48.09 18.3147 48.132 18.0004 48.1809 17.6584C48.2226 17.3094 48.2507 16.9951 48.2507 16.7159C48.2575 16.4224 48.2017 16.1922 48.097 16.0107C47.9923 15.8291 47.8036 15.6893 47.5384 15.5846C47.2871 15.5008 46.9658 15.438 46.5748 15.3961C46.1769 15.3541 45.7719 15.3265 45.3669 15.3122C44.9549 15.2984 44.606 15.2914 44.3125 15.2914H37.6933C37.3931 15.2843 37.0719 15.2984 36.7229 15.3192C36.3735 15.3403 36.0385 15.4031 35.7242 15.5008C35.4101 15.5984 35.1518 15.7661 34.9492 15.9966C34.7468 16.2271 34.6421 16.555 34.6351 16.9672C34.6421 17.4209 34.7538 17.7631 34.9703 17.9795C35.1867 18.203 35.4591 18.3496 35.7943 18.4194C36.1294 18.4892 36.4854 18.5241 36.8555 18.5173C37.023 18.5173 37.1975 18.5173 37.3722 18.5173C37.5467 18.5173 37.7144 18.5173 37.861 18.5173C38.5661 18.5103 39.1247 18.566 39.5437 18.6778C39.9555 18.7825 40.2628 18.964 40.4583 19.2226C40.6539 19.4807 40.7865 19.8299 40.8425 20.2698C40.8982 20.7028 40.9263 21.2542 40.9193 21.9107C40.9263 22.4623 40.9052 23.0416 40.8633 23.6491C40.8214 24.2497 40.7167 24.8292 40.542 25.3808C40.3677 25.9394 40.0883 26.4141 39.7041 26.8121C39.3483 27.1754 38.9153 27.4686 38.4196 27.685C37.9168 27.9085 37.4001 28.0689 36.8623 28.1736C36.318 28.2715 35.8151 28.3203 35.3474 28.3203C34.1254 28.3135 33.029 28.0621 32.0657 27.5871C31.1021 27.1056 30.2643 26.4561 29.552 25.6391C28.8399 24.8224 28.2462 23.9005 27.7784 22.8743C27.3107 21.848 26.9615 20.7794 26.731 19.6692C26.4937 18.566 26.382 17.4769 26.382 16.4224C26.382 15.2145 26.5075 13.9999 26.7521 12.7847C26.9964 11.5698 27.3805 10.4106 27.8902 9.30766C28.3998 8.20425 29.0491 7.2266 29.8382 6.36091C30.6271 5.50224 31.563 4.81785 32.6451 4.322C33.7275 3.82636 34.9632 3.56808 36.3529 3.56117C37.2256 3.56117 38.0845 3.69376 38.9291 3.97305C39.7812 4.25243 40.5562 4.67145 41.2542 5.23687C41.6665 5.57204 42.0154 5.91424 42.3087 6.27729C42.5949 6.64011 42.8462 7.01743 43.0697 7.4224C43.2861 7.82035 43.5096 8.25342 43.726 8.71414C43.8515 8.97929 43.9775 9.21679 44.1101 9.42641C44.2497 9.63558 44.4174 9.79648 44.6127 9.91501C44.8083 10.0335 45.0599 10.0965 45.3599 10.0965C45.8 10.0895 46.149 9.96396 46.4003 9.72646C46.6585 9.48193 46.8262 9.16081 46.91 8.75607ZM143.015 27.315C144.027 28.2507 145.159 29.0536 146.408 29.7167C147.658 30.3732 148.964 30.8759 150.332 31.2251C151.701 31.5741 153.077 31.7556 154.452 31.7556C156.253 31.7486 157.978 31.4973 159.619 31.0016C161.26 30.5058 162.768 29.7937 164.151 28.8651C165.533 27.9364 166.734 26.8261 167.76 25.5276C168.78 24.2356 169.576 22.7835 170.141 21.1774C170.707 19.5786 170.993 17.8538 171 16.0034C170.993 14.1324 170.714 12.3938 170.162 10.7948C169.611 9.19571 168.828 7.75758 167.823 6.47966C166.818 5.20197 165.638 4.11283 164.269 3.21188C162.901 2.31119 161.399 1.62002 159.759 1.14532C158.125 0.663456 156.393 0.425979 154.578 0.419044C152.776 0.425979 151.072 0.67039 149.453 1.15919C147.84 1.65492 146.359 2.36017 145.012 3.27472C143.671 4.18943 142.505 5.29285 141.521 6.57054C140.529 7.85525 139.768 9.28659 139.23 10.8786C138.686 12.4636 138.414 14.1741 138.407 16.0034C138.407 18.1889 138.784 20.2419 139.552 22.1621C140.313 24.0822 141.465 25.7998 143.015 27.315ZM162.998 16.1711C162.998 17.0581 162.949 17.9725 162.838 18.9223C162.726 19.8718 162.545 20.8143 162.286 21.743C162.035 22.6717 161.7 23.5515 161.274 24.3752C160.855 25.1992 160.331 25.9256 159.717 26.5608C159.095 27.1962 158.369 27.6989 157.524 28.0621C156.679 28.4252 155.716 28.6065 154.62 28.6137C153.544 28.6065 152.595 28.4111 151.771 28.0272C150.947 27.6431 150.228 27.1124 149.627 26.4493C149.02 25.7789 148.51 25.0177 148.098 24.1661C147.679 23.3072 147.351 22.3993 147.107 21.4498C146.855 20.5002 146.681 19.5505 146.569 18.5939C146.457 17.6446 146.408 16.7368 146.408 15.8779C146.401 14.5163 146.513 13.1897 146.75 11.8909C146.988 10.5994 147.4 9.34256 148 8.12765C148.447 7.24088 148.992 6.45179 149.634 5.76739C150.277 5.08322 151.017 4.54568 151.855 4.15453C152.693 3.76352 153.628 3.56808 154.661 3.56117C155.751 3.56808 156.714 3.75658 157.552 4.13368C158.383 4.50375 159.116 5.01342 159.731 5.66292C160.345 6.31921 160.862 7.05936 161.281 7.90397C161.7 8.74179 162.035 9.62879 162.293 10.5715C162.544 11.5138 162.726 12.4636 162.838 13.4202C162.949 14.3697 162.998 15.2914 162.998 16.1711ZM131.41 25.1016V14.6212H133.798C134.182 14.628 134.566 14.6002 134.943 14.5304C135.32 14.4676 135.628 14.3207 135.879 14.0905C136.13 13.8668 136.263 13.511 136.27 13.029C136.263 12.5053 136.13 12.1284 135.879 11.8982C135.628 11.6675 135.306 11.5208 134.915 11.4651C134.531 11.4093 134.126 11.3883 133.714 11.3953H131.285V6.45179C131.292 5.88614 131.257 5.46032 131.173 5.18089C131.089 4.89467 130.894 4.70612 130.6 4.60845C130.307 4.5178 129.853 4.47565 129.232 4.4829C128.694 4.4829 128.282 4.54568 127.982 4.67825C127.689 4.81082 127.472 5.03427 127.326 5.33454C127.179 5.63482 127.06 6.03299 126.97 6.53564C126.914 6.89868 126.83 7.31068 126.711 7.78522C126.599 8.25342 126.46 8.71414 126.306 9.16784C126.153 9.62176 125.978 9.99886 125.797 10.3059C125.587 10.6203 125.336 10.8578 125.056 11.0252C124.77 11.1859 124.463 11.3044 124.121 11.3744C123.786 11.451 123.437 11.5138 123.073 11.563C122.766 11.6117 122.487 11.6885 122.242 11.7862C121.998 11.8839 121.803 12.0237 121.656 12.2191C121.516 12.4146 121.447 12.687 121.44 13.029C121.447 13.5459 121.572 13.9228 121.81 14.1462C122.047 14.3767 122.347 14.5093 122.717 14.5582C123.087 14.607 123.471 14.628 123.869 14.6212H124.707V27.9434C124.707 28.6416 124.763 29.2002 124.882 29.626C125.007 30.0519 125.196 30.3732 125.468 30.5896C125.734 30.8063 126.09 30.9527 126.53 31.0227C126.97 31.0993 127.507 31.1342 128.143 31.1272H133.798C134.064 31.1272 134.357 31.1204 134.664 31.0925C134.978 31.0644 135.272 31.0016 135.551 30.904C135.83 30.8063 136.06 30.6454 136.242 30.4362C136.424 30.2266 136.514 29.9404 136.521 29.5773C136.514 29.1302 136.43 28.7953 136.263 28.5648C136.088 28.3273 135.872 28.1736 135.593 28.083C135.32 27.9994 135.02 27.9502 134.699 27.9434C134.378 27.9364 134.064 27.9364 133.756 27.9434C133.058 27.9434 132.534 27.8314 132.199 27.615C131.864 27.3986 131.641 27.0775 131.543 26.6584C131.445 26.2329 131.403 25.7159 131.41 25.1016ZM118.8 25.5133V19.02C118.807 18.0564 118.709 17.1766 118.5 16.3875C118.29 15.5984 117.941 14.8864 117.453 14.2512C116.964 13.6155 116.293 13.0571 115.449 12.5683C114.771 12.1912 114.052 11.8982 113.284 11.6745C112.523 11.451 111.741 11.2974 110.952 11.1997C110.156 11.102 109.381 11.0599 108.62 11.0599C108.271 11.0599 107.824 11.0742 107.272 11.1159C106.728 11.1508 106.134 11.2135 105.492 11.3044C104.85 11.3953 104.214 11.5281 103.579 11.6885C102.943 11.849 102.364 12.0586 101.833 12.3099C101.309 12.5545 100.883 12.8615 100.562 13.2108C100.248 13.5668 100.081 13.9788 100.073 14.4535C100.081 14.9353 100.22 15.3265 100.478 15.6127C100.737 15.9057 101.058 16.1083 101.449 16.2341C101.833 16.3597 102.231 16.4224 102.629 16.4224C103.146 16.4156 103.586 16.3248 103.956 16.1503C104.326 15.9758 104.661 15.7661 104.961 15.5078C105.254 15.2494 105.555 14.9981 105.848 14.74C106.141 14.4814 106.469 14.265 106.832 14.0975C107.188 13.9228 107.621 13.8322 108.117 13.8251C108.997 13.8322 109.716 14.0205 110.282 14.3905C110.84 14.7676 111.259 15.2775 111.525 15.9198C111.797 16.5693 111.93 17.3094 111.93 18.1402H110.547C109.786 18.1402 108.969 18.1821 108.089 18.2728C107.216 18.3637 106.337 18.5173 105.443 18.7267C104.549 18.9361 103.697 19.2226 102.88 19.5786C102.063 19.9416 101.337 20.3883 100.695 20.9193C100.06 21.4568 99.5498 22.0923 99.1797 22.8324C98.8028 23.5653 98.6143 24.4174 98.6075 25.3878C98.6143 26.4493 98.8239 27.3707 99.2216 28.1668C99.6268 28.9627 100.178 29.626 100.87 30.1568C101.568 30.6875 102.357 31.0925 103.236 31.3577C104.123 31.623 105.052 31.7556 106.023 31.7556C106.867 31.7556 107.684 31.6579 108.473 31.4556C109.262 31.2459 109.995 30.9108 110.666 30.45C111.336 29.9891 111.909 29.3747 112.391 28.6137C112.418 29.0747 112.453 29.4654 112.495 29.7867C112.544 30.1078 112.628 30.3662 112.76 30.5618C112.893 30.7571 113.11 30.904 113.396 30.9946C113.689 31.0855 114.094 31.1272 114.611 31.1272H118.716C119.045 31.1342 119.38 31.1204 119.722 31.0782C120.057 31.0365 120.343 30.9246 120.574 30.7433C120.804 30.5545 120.93 30.2545 120.937 29.8286C120.93 29.4865 120.832 29.2211 120.637 29.0466C120.441 28.8651 120.189 28.7114 119.889 28.5716C119.701 28.495 119.533 28.3901 119.387 28.2715C119.24 28.1458 119.114 27.9851 119.01 27.7759C118.926 27.5871 118.87 27.3569 118.842 27.0775C118.814 26.7983 118.8 26.5191 118.8 26.2397C118.8 25.9605 118.8 25.7159 118.8 25.5133ZM111.385 20.6956H112.139V22.0363C112.146 22.5738 112.139 23.0907 112.118 23.5796C112.097 24.0611 112.02 24.5361 111.895 25.0039C111.776 25.4716 111.56 25.9464 111.259 26.4352C111.022 26.8053 110.742 27.1334 110.428 27.4267C110.107 27.727 109.758 27.9645 109.367 28.1387C108.983 28.3135 108.564 28.3973 108.117 28.4041C107.559 28.3973 107.084 28.2575 106.7 27.9783C106.316 27.6989 106.023 27.3358 105.82 26.8891C105.625 26.442 105.52 25.9534 105.52 25.4297C105.527 24.6127 105.701 23.9075 106.03 23.314C106.365 22.7137 106.811 22.2248 107.37 21.8337C107.929 21.4498 108.557 21.1633 109.248 20.9748C109.939 20.7865 110.652 20.6956 111.385 20.6956ZM88.2593 8.46259V25.5555C88.2593 25.7579 88.2593 26.0022 88.2525 26.2884C88.2455 26.5748 88.2314 26.861 88.2105 27.1405C88.1895 27.4126 88.1478 27.6431 88.0918 27.8176C88.0012 28.0062 87.8686 28.1528 87.6939 28.2715C87.5191 28.3901 87.3449 28.488 87.1701 28.5716C86.8909 28.7114 86.6534 28.8721 86.4649 29.0536C86.2695 29.2351 86.1719 29.4794 86.1646 29.7867C86.1719 30.2266 86.2974 30.5407 86.5277 30.7292C86.7584 30.9178 87.0446 31.0365 87.3798 31.0782C87.7217 31.1204 88.0569 31.1342 88.3851 31.1272H94.8367C95.1789 31.1342 95.5209 31.1204 95.8561 31.0782C96.1983 31.0365 96.4775 30.9178 96.7082 30.7292C96.9314 30.5407 97.0501 30.2266 97.0572 29.7867C97.0501 29.4794 96.9595 29.2351 96.7777 29.0536C96.6032 28.8721 96.373 28.7114 96.0936 28.5716C95.9191 28.488 95.7446 28.3901 95.5698 28.2715C95.3953 28.1528 95.2628 28.0062 95.1719 27.8176C95.1021 27.6431 95.0531 27.4126 95.0253 27.1405C94.9972 26.861 94.9765 26.5748 94.9693 26.2884C94.9623 26.0022 94.9623 25.7579 94.9623 25.5555V4.022C94.9623 3.89634 94.9623 3.74965 94.9623 3.58911C94.9623 3.43548 94.9623 3.26778 94.9623 3.10031C94.9623 2.75818 94.9484 2.40891 94.9135 2.046C94.8786 1.6898 94.8018 1.3546 94.6901 1.04737C94.5784 0.733209 94.4107 0.488822 94.1874 0.293384C93.957 0.104881 93.6637 0.00716122 93.2866 0C92.9655 0 92.5954 0.0420377 92.1764 0.132822C91.7506 0.216445 91.3107 0.321325 90.8568 0.446987C90.4031 0.579605 89.963 0.712405 89.5372 0.845024C89.1182 0.984554 88.7481 1.10328 88.427 1.2151C88.2314 1.26382 87.9941 1.31973 87.7217 1.38257C87.4493 1.45232 87.1772 1.53617 86.9118 1.64105C86.6396 1.75264 86.4162 1.8924 86.2346 2.07397C86.0531 2.25529 85.9622 2.48583 85.9552 2.76512C85.9693 3.08619 86.074 3.33062 86.2695 3.48423C86.4719 3.64477 86.7024 3.77761 86.9607 3.89634C87.198 4.02894 87.3936 4.15453 87.554 4.27328C87.7149 4.39905 87.8475 4.54568 87.9452 4.71315C88.0429 4.88788 88.1199 5.11812 88.1757 5.40434C88.2035 5.70462 88.2244 6.03299 88.2314 6.38878C88.2455 6.75206 88.2525 7.11511 88.2593 7.47113C88.2593 7.83417 88.2593 8.16255 88.2593 8.46259ZM75.9424 8.46259V25.5555C75.9424 25.7579 75.9424 26.0022 75.9356 26.2884C75.9286 26.5748 75.9146 26.861 75.8937 27.1405C75.8726 27.4126 75.8309 27.6431 75.775 27.8176C75.6843 28.0062 75.5515 28.1528 75.377 28.2715C75.2023 28.3901 75.028 28.488 74.8533 28.5716C74.5741 28.7114 74.3366 28.8721 74.148 29.0536C73.9527 29.2351 73.8548 29.4794 73.8478 29.7867C73.8548 30.2266 73.9806 30.5407 74.2108 30.7292C74.4413 30.9178 74.7275 31.0365 75.0627 31.0782C75.4049 31.1204 75.74 31.1342 76.0682 31.1272H82.5199C82.8618 31.1342 83.204 31.1204 83.5392 31.0782C83.8814 31.0365 84.1606 30.9178 84.3911 30.7292C84.6145 30.5407 84.7333 30.2266 84.7403 29.7867C84.7333 29.4794 84.6424 29.2351 84.4609 29.0536C84.2864 28.8721 84.0559 28.7114 83.7767 28.5716C83.602 28.488 83.4277 28.3901 83.253 28.2715C83.0785 28.1528 82.9457 28.0062 82.855 27.8176C82.7852 27.6431 82.7363 27.4126 82.7084 27.1405C82.6803 26.861 82.6595 26.5748 82.6524 26.2884C82.6454 26.0022 82.6454 25.7579 82.6454 25.5555V4.022C82.6454 3.89634 82.6454 3.74965 82.6454 3.58911C82.6454 3.43548 82.6454 3.26778 82.6454 3.10031C82.6454 2.75818 82.6316 2.40891 82.5967 2.046C82.5618 1.6898 82.485 1.3546 82.373 1.04737C82.2615 0.733209 82.0938 0.488822 81.8704 0.293384C81.6401 0.104881 81.3469 0.00716122 80.9698 0C80.6487 0 80.2786 0.0420377 79.8596 0.132822C79.4335 0.216445 78.9939 0.321325 78.54 0.446987C78.0863 0.579605 77.6462 0.712405 77.2203 0.845024C76.8013 0.984554 76.4312 1.10328 76.1101 1.2151C75.9145 1.26382 75.6773 1.31973 75.4049 1.38257C75.1325 1.45232 74.8601 1.53617 74.5949 1.64105C74.3228 1.75264 74.0993 1.8924 73.9178 2.07397C73.736 2.25529 73.6454 2.48583 73.6384 2.76512C73.6522 3.08619 73.7571 3.33062 73.9527 3.48423C74.1548 3.64477 74.3855 3.77761 74.6437 3.89634C74.8812 4.02894 75.0767 4.15453 75.2372 4.27328C75.3981 4.39905 75.5307 4.54568 75.6283 4.71315C75.726 4.88788 75.8028 5.11812 75.8588 5.40434C75.8865 5.70462 75.9075 6.03299 75.9146 6.38878C75.9286 6.75206 75.9356 7.11511 75.9424 7.47113C75.9424 7.83417 75.9424 8.16255 75.9424 8.46259ZM70.3286 25.5133V19.02C70.3356 18.0564 70.2377 17.1766 70.0283 16.3875C69.8189 15.5984 69.4697 14.8864 68.9811 14.2512C68.4923 13.6155 67.8219 13.0571 66.9773 12.5683C66.2999 12.1912 65.5806 11.8982 64.8126 11.6745C64.0516 11.451 63.2696 11.2974 62.4805 11.1997C61.6843 11.102 60.9095 11.0599 60.1485 11.0599C59.7993 11.0599 59.3524 11.0742 58.8008 11.1159C58.256 11.1508 57.6627 11.2135 57.0202 11.3044C56.378 11.3953 55.7426 11.5281 55.1071 11.6885C54.4719 11.849 53.8922 12.0586 53.3617 12.3099C52.838 12.5545 52.4119 12.8615 52.0908 13.2108C51.7767 13.5668 51.609 13.9788 51.602 14.4535C51.609 14.9353 51.7488 15.3265 52.0069 15.6127C52.2653 15.9057 52.5866 16.1083 52.9778 16.2341C53.3617 16.3597 53.7596 16.4224 54.1576 16.4224C54.6743 16.4156 55.1141 16.3248 55.4842 16.1503C55.8543 15.9758 56.1892 15.7661 56.4897 15.5078C56.783 15.2494 57.083 14.9981 57.3765 14.74C57.6695 14.4814 57.9979 14.265 58.3609 14.0975C58.717 13.9228 59.1498 13.8322 59.6457 13.8251C60.5254 13.8322 61.2447 14.0205 61.8101 14.3905C62.3687 14.7676 62.7878 15.2775 63.0531 15.9198C63.3253 16.5693 63.4581 17.3094 63.4581 18.1402H62.0755C61.3143 18.1402 60.4975 18.1821 59.6175 18.2728C58.7448 18.3637 57.8653 18.5173 56.9715 18.7267C56.0777 18.9361 55.2259 19.2226 54.4089 19.5786C53.5919 19.9416 52.8658 20.3883 52.2234 20.9193C51.5881 21.4568 51.0785 22.0923 50.7084 22.8324C50.3313 23.5653 50.1428 24.4174 50.136 25.3878C50.1428 26.4493 50.3524 27.3707 50.7501 28.1668C51.1553 28.9627 51.7067 29.626 52.3981 30.1568C53.0961 30.6875 53.8854 31.0925 54.7649 31.3577C55.6517 31.623 56.5804 31.7556 57.551 31.7556C58.3958 31.7556 59.2128 31.6579 60.0019 31.4556C60.7908 31.2459 61.5239 30.9108 62.1942 30.45C62.8646 29.9891 63.437 29.3747 63.919 28.6137C63.9469 29.0747 63.9818 29.4654 64.0235 29.7867C64.0725 30.1078 64.1561 30.3662 64.2889 30.5618C64.4217 30.7571 64.6381 30.904 64.9243 30.9946C65.2176 31.0855 65.6226 31.1272 66.1393 31.1272H70.2447C70.5731 31.1342 70.9083 31.1204 71.2502 31.0782C71.5854 31.0365 71.8716 30.9246 72.1023 30.7433C72.3326 30.5545 72.4581 30.2545 72.4651 29.8286C72.4581 29.4865 72.3605 29.2211 72.1651 29.0466C71.9693 28.8651 71.718 28.7114 71.4177 28.5716C71.2292 28.495 71.0619 28.3901 70.9151 28.2715C70.7684 28.1458 70.6427 27.9851 70.5382 27.7759C70.4543 27.5871 70.3984 27.3569 70.3705 27.0775C70.3426 26.7983 70.3286 26.5191 70.3286 26.2397C70.3286 25.9605 70.3286 25.7159 70.3286 25.5133ZM62.9133 20.6956H63.6675V22.0363C63.6745 22.5738 63.6675 23.0907 63.6467 23.5796C63.6256 24.0611 63.549 24.5361 63.4232 25.0039C63.3045 25.4716 63.088 25.9464 62.7878 26.4352C62.5503 26.8053 62.2711 27.1334 61.9567 27.4267C61.6356 27.727 61.2864 27.9645 60.8955 28.1387C60.5113 28.3135 60.0926 28.3973 59.6457 28.4041C59.087 28.3973 58.6123 28.2575 58.2281 27.9783C57.8442 27.6989 57.551 27.3358 57.3484 26.8891C57.153 26.442 57.0481 25.9534 57.0481 25.4297C57.0554 24.6127 57.2299 23.9075 57.558 23.314C57.8932 22.7137 58.3399 22.2248 58.8985 21.8337C59.4571 21.4498 60.0858 21.1633 60.7767 20.9748C61.4679 20.7865 62.1802 20.6956 62.9133 20.6956Z" fill="#252525"/>
<path fill-rule="evenodd" clip-rule="evenodd" d="M18.7742 13.5345L18.7483 13.6916C18.0714 12.2612 17.2003 10.5556 16.1884 9.23055C13.2564 5.37505 10.4472 2.53286 5.39853 0.789145C4.26407 0.399516 1.34406 -0.400638 0.407436 0.688276C-0.899714 2.21527 1.33069 6.2566 1.62417 9.00755C2.04568 12.9381 1.99697 17.8634 12.621 16.2214C6.56247 18.7434 -0.42426 22.3605 3.84437 28.4872C5.9771 31.5412 9.7091 32.8624 13.7053 30.6324C16.4533 29.1005 17.0892 24.6424 18.5734 22.0108L19.0155 21.0556C18.8363 18.5608 18.7377 16.0663 18.7742 13.5717V13.5345Z" fill="#FF0000"/>
</svg>
