<svg width="35" height="35" viewBox="0 0 35 35" fill="none" xmlns="http://www.w3.org/2000/svg">
<g clip-path="url(#clip0)">
<path d="M14.5166 11.7525C14.2501 11.4853 13.8168 11.4853 13.5503 11.7525C13.283 12.0191 13.283 12.4517 13.5503 12.7189C13.8168 12.9854 14.2501 12.9854 14.5166 12.7189C14.7838 12.4517 14.7838 12.019 14.5166 11.7525Z" fill="white"/>
<path d="M30.9598 20.463L19.7658 9.26818V6.15474C19.7658 2.76328 17.0067 0.00415039 13.6152 0.00415039C10.2238 0.00415039 7.46464 2.76328 7.46464 6.15474V13.9972L2.0144 19.4475C2.01419 19.4478 2.01399 19.448 2.01378 19.4482C2.01358 19.4484 2.01344 19.4486 2.01317 19.4488L0.998914 20.4631C-0.332937 21.7949 -0.333005 23.9627 0.998914 25.2955L9.69706 33.993C10.3424 34.6388 11.2006 34.9944 12.1134 34.9944C13.0262 34.9944 13.8844 34.6388 14.5296 33.9932L15.5437 32.9791C15.5438 32.9791 15.5438 32.9791 15.5439 32.979C15.5439 32.979 15.5439 32.9789 15.544 32.9789L26.8937 21.6296H30.4767C30.7531 21.6296 31.0023 21.4631 31.1081 21.2077C31.2137 20.9524 31.1552 20.6585 30.9598 20.463ZM18.6055 15.4203C18.7386 15.2872 18.9135 15.2206 19.0884 15.2206C19.2634 15.2206 19.4385 15.2873 19.5719 15.4206C19.7011 15.5496 19.7722 15.7213 19.7722 15.9038C19.7722 16.0862 19.7011 16.2579 19.5719 16.3868C19.5717 16.3869 19.5717 16.387 19.5715 16.3872C19.4425 16.5161 19.271 16.5872 19.0885 16.5872C18.9061 16.5872 18.7345 16.5161 18.6054 16.3871C18.4764 16.258 18.4053 16.0864 18.4053 15.9036C18.4053 15.7211 18.4764 15.5494 18.6055 15.4203ZM13.6152 1.371C16.2531 1.371 18.399 3.51702 18.399 6.15481V7.90147L16.463 5.96545C16.3349 5.83735 16.161 5.7653 15.9798 5.7653C15.7986 5.7653 15.6247 5.83735 15.4966 5.96545L8.83149 12.6306V6.15488H8.83142C8.83149 3.51702 10.9774 1.371 13.6152 1.371ZM13.563 33.0267C13.1758 33.4141 12.6611 33.6275 12.1134 33.6275C11.5657 33.6275 11.051 33.4142 10.6636 33.0266L1.96559 24.3291C1.16633 23.5294 1.16626 22.2286 1.96545 21.4294L2.49702 20.8979L14.0942 32.4956L13.563 33.0267ZM26.6107 20.2628C26.4294 20.2628 26.2557 20.3348 26.1275 20.463L15.0606 31.5292L3.46342 19.9314L8.63106 14.7637C8.63113 14.7636 8.6312 14.7635 8.63134 14.7634L15.9797 7.41502L18.399 9.8344V13.9732C18.1213 14.0719 17.8608 14.232 17.6389 14.4538C17.2518 14.841 17.0385 15.3559 17.0385 15.9037C17.0385 16.4515 17.2518 16.9664 17.6389 17.3536C18.0261 17.7408 18.5409 17.9541 19.0885 17.9541C19.6359 17.9541 20.1505 17.7409 20.5377 17.354C20.9255 16.9668 21.139 16.4518 21.139 15.9038C21.139 15.3558 20.9255 14.8408 20.538 14.4538C20.3129 14.2287 20.0479 14.067 19.7657 13.9687V11.2013L28.8267 20.2628H26.6107Z" fill="white"/>
<path d="M12.5841 13.685C12.3173 13.4182 11.8845 13.4181 11.6177 13.685L5.81838 19.4836C5.55144 19.7505 5.55144 20.1832 5.81831 20.4501C5.95168 20.5835 6.12668 20.6503 6.30155 20.6503C6.47641 20.6503 6.65134 20.5835 6.78471 20.4501L12.584 14.6515C12.8509 14.3846 12.8509 13.952 12.5841 13.685Z" fill="white"/>
<path d="M32.1623 25.3381C32.0374 25.1385 31.8185 25.0172 31.583 25.0172C31.3475 25.0172 31.1287 25.1384 31.0037 25.3381C30.5298 26.0952 28.166 29.9542 28.166 31.5778C28.166 33.4619 29.6989 34.9948 31.583 34.9948C33.4671 34.9948 34.9999 33.4619 34.9999 31.5778C35.0001 29.9542 32.6362 26.0951 32.1623 25.3381ZM31.5831 33.628C30.4526 33.628 29.5329 32.7083 29.5329 31.5778C29.5329 30.825 30.5968 28.7163 31.5831 27.024C32.5694 28.7164 33.6333 30.825 33.6333 31.5778C33.6333 32.7083 32.7136 33.628 31.5831 33.628Z" fill="white"/>
</g>
<defs>
<clipPath id="clip0">
<rect width="35" height="35" fill="white"/>
</clipPath>
</defs>
</svg>
