<svg width="70" height="13" viewBox="0 0 70 13" fill="none" xmlns="http://www.w3.org/2000/svg">
<path fill-rule="evenodd" clip-rule="evenodd" d="M19.0856 3.58435V3.17265C19.0856 3.07839 19.0856 2.96689 19.0856 2.82968C19.0856 2.69544 19.0827 2.55536 19.0742 2.40953C19.0684 2.2637 19.0541 2.12659 19.0341 2.00088C19.0142 1.87509 18.9856 1.77221 18.9484 1.6979C18.8683 1.5549 18.7654 1.43205 18.6425 1.33485C18.5168 1.23764 18.3853 1.14621 18.2453 1.06336C17.9823 0.917549 17.6936 0.788943 17.3793 0.677453C17.0648 0.565964 16.739 0.474521 16.4017 0.397356C16.0645 0.32303 15.73 0.265912 15.3984 0.228749C15.0697 0.191586 14.7525 0.171539 14.4552 0.171539C13.6749 0.171539 12.9318 0.27159 12.2286 0.465913C11.5226 0.660338 10.8795 0.946103 10.2935 1.31773C9.70481 1.68927 9.19894 2.14375 8.76729 2.67819C8.33564 3.21282 8.0013 3.82157 7.76697 4.50175C7.64525 4.85065 7.55425 5.21681 7.49432 5.60031C7.2238 5.01457 6.87545 4.31602 6.47107 3.77342C5.29903 2.19449 4.17607 1.03064 2.15807 0.316499C1.70453 0.156881 0.537306 -0.170778 0.162892 0.27518C-0.359675 0.900526 0.531926 2.55546 0.649186 3.68204C0.817654 5.29177 0.798264 7.30874 5.04513 6.63636C2.62321 7.66915 -0.16959 9.15039 1.53671 11.6594C2.38916 12.9101 3.88106 13.4512 5.47854 12.538C6.57693 11.9105 6.83102 10.0849 7.42437 9.00725L7.63644 8.53802C7.67113 8.66521 7.70982 8.7898 7.75259 8.91207C7.98126 9.56665 8.30141 10.1469 8.7159 10.6557C9.1303 11.1615 9.6191 11.5874 10.185 11.9361C10.7509 12.2849 11.3712 12.5479 12.0485 12.7279C12.7288 12.9079 13.4434 12.9994 14.198 12.9994C14.6353 12.9994 15.0383 12.9737 15.407 12.9251C15.7786 12.8736 16.1445 12.7994 16.5046 12.6964C16.8647 12.5964 17.2449 12.4677 17.6451 12.3134C17.765 12.2762 17.9109 12.222 18.0823 12.1504C18.2538 12.0791 18.4311 11.9933 18.6168 11.8961C18.7998 11.7988 18.9742 11.6903 19.1341 11.5703C19.2971 11.4502 19.4287 11.3244 19.5287 11.1901C19.6315 11.0529 19.683 10.9158 19.6858 10.7699C19.6858 10.7242 19.6773 10.6699 19.6658 10.607C19.6544 10.5442 19.643 10.4899 19.6344 10.4441C19.5658 10.164 19.5172 9.88957 19.4886 9.61813C19.46 9.34947 19.4457 9.06931 19.4457 8.78061L19.5486 7.61451C19.5686 7.49725 19.5858 7.36858 19.6058 7.22859C19.6229 7.08573 19.6344 6.95706 19.6344 6.84277C19.6372 6.72263 19.6144 6.62838 19.5715 6.55407C19.5287 6.47976 19.4514 6.42252 19.3428 6.37967C19.24 6.34534 19.1084 6.31964 18.9484 6.30248C18.7855 6.28532 18.6197 6.274 18.4539 6.26816C18.2853 6.2625 18.1424 6.25962 18.0223 6.25962H15.3127C15.1898 6.25675 15.0583 6.2625 14.9154 6.27103C14.7724 6.27966 14.6353 6.30536 14.5066 6.34534C14.378 6.38532 14.2723 6.45397 14.1894 6.54832C14.1065 6.64266 14.0637 6.7769 14.0608 6.94565C14.0637 7.13137 14.1094 7.27145 14.198 7.36005C14.2866 7.45152 14.3981 7.51154 14.5353 7.54011C14.6725 7.56868 14.8182 7.58297 14.9697 7.58019C15.0383 7.58019 15.1097 7.58019 15.1812 7.58019C15.2527 7.58019 15.3213 7.58019 15.3813 7.58019C15.6699 7.57731 15.8986 7.60013 16.0701 7.64587C16.2387 7.68873 16.3645 7.76303 16.4446 7.86888C16.5246 7.97455 16.5789 8.1175 16.6018 8.29757C16.6246 8.47485 16.6361 8.70055 16.6333 8.96931C16.6361 9.19511 16.6275 9.43222 16.6103 9.68094C16.5932 9.92677 16.5503 10.164 16.4788 10.3898C16.4075 10.6185 16.2931 10.8128 16.1358 10.9757C15.9902 11.1244 15.8129 11.2445 15.61 11.3331C15.4042 11.4245 15.1926 11.4902 14.9725 11.5331C14.7497 11.5731 14.5438 11.5931 14.3523 11.5931C13.8521 11.5903 13.4033 11.4874 13.009 11.293C12.6145 11.0958 12.2715 10.83 11.98 10.4955C11.6885 10.1612 11.4454 9.78382 11.254 9.36376C11.0625 8.94361 10.9195 8.50621 10.8252 8.05173C10.7281 7.60013 10.6823 7.15428 10.6823 6.72263C10.6823 6.22817 10.7337 5.73093 10.8338 5.23351C10.9338 4.73617 11.0911 4.26166 11.2997 3.81015C11.5083 3.35846 11.7741 2.95826 12.0971 2.60388C12.4201 2.25238 12.8032 1.97222 13.2462 1.76924C13.6892 1.56635 14.1951 1.46062 14.764 1.45779C15.1212 1.45779 15.4728 1.51207 15.8186 1.6264C16.1674 1.74076 16.4846 1.91229 16.7704 2.14375C16.9391 2.28095 17.082 2.42103 17.202 2.56965C17.3192 2.71817 17.4221 2.87263 17.5135 3.03841C17.6021 3.20131 17.6936 3.37859 17.7822 3.56719C17.8336 3.67573 17.8852 3.77295 17.9394 3.85877C17.9966 3.94439 18.0652 4.01026 18.1452 4.05877C18.2253 4.10729 18.3282 4.13308 18.4511 4.13308C18.6312 4.13021 18.7741 4.07881 18.877 3.98159C18.9826 3.88149 19.0513 3.75004 19.0856 3.58435ZM58.4268 11.1816C58.8412 11.5646 59.3043 11.8933 59.8158 12.1647C60.3275 12.4335 60.862 12.6392 61.4222 12.7822C61.9825 12.9251 62.5456 12.9994 63.1087 12.9994C63.8461 12.9965 64.5521 12.8936 65.2237 12.6907C65.8954 12.4878 66.5128 12.1963 67.0788 11.8161C67.6446 11.4359 68.1363 10.9815 68.5565 10.4499C68.9737 9.92102 69.2996 9.32656 69.5311 8.66911C69.7627 8.01462 69.8799 7.30856 69.8826 6.5511C69.8799 5.7852 69.7655 5.07348 69.5397 4.4189C69.3139 3.76433 68.9937 3.17562 68.5822 2.65249C68.1706 2.12946 67.6875 1.68361 67.1274 1.3148C66.5671 0.946103 65.9526 0.663167 65.2809 0.468844C64.6121 0.27159 63.9032 0.174377 63.1601 0.171539C62.4227 0.174377 61.7252 0.274428 61.0621 0.474522C60.4019 0.677453 59.7959 0.96615 59.2443 1.34053C58.6955 1.71497 58.2182 2.16666 57.8151 2.68969C57.4092 3.2156 57.0977 3.80153 56.8776 4.45323C56.6546 5.10205 56.5432 5.80227 56.5404 6.5511C56.5404 7.44576 56.6947 8.28616 57.009 9.07219C57.3206 9.85822 57.7923 10.5613 58.4268 11.1816ZM66.6071 6.61975C66.6071 6.98285 66.5871 7.35717 66.5414 7.74596C66.4957 8.13467 66.4213 8.52049 66.3156 8.90066C66.2127 9.28082 66.0755 9.64095 65.9012 9.97817C65.7297 10.3155 65.5153 10.6128 65.2638 10.8728C65.0094 11.133 64.7122 11.3387 64.3662 11.4874C64.0204 11.636 63.626 11.7103 63.1772 11.7132C62.737 11.7103 62.3483 11.6303 62.011 11.4731C61.6737 11.3159 61.3794 11.0986 61.1336 10.8272C60.8849 10.5528 60.6762 10.2412 60.5076 9.89254C60.3362 9.54095 60.2017 9.16932 60.1017 8.78061C59.9989 8.39191 59.9273 8.00312 59.8817 7.61154C59.836 7.22293 59.8158 6.8513 59.8158 6.49971C59.813 5.94235 59.8588 5.39928 59.9559 4.86763C60.0531 4.33894 60.2217 3.82444 60.4676 3.32711C60.6505 2.9641 60.8735 2.64108 61.1364 2.36092C61.3994 2.08085 61.7024 1.8608 62.0453 1.70068C62.3884 1.54062 62.7714 1.46062 63.1944 1.45779C63.6403 1.46062 64.0347 1.53778 64.3776 1.69215C64.7178 1.84364 65.0179 2.05228 65.2695 2.31815C65.5209 2.58681 65.7324 2.88979 65.9041 3.23554C66.0755 3.57851 66.2127 3.94161 66.3185 4.32753C66.4213 4.71326 66.4957 5.10205 66.5414 5.49363C66.5871 5.88233 66.6071 6.25962 66.6071 6.61975ZM53.6764 10.2755V5.9853H54.6539C54.811 5.98809 54.9683 5.97668 55.1227 5.9481C55.2769 5.92241 55.4027 5.86229 55.5056 5.76804C55.6086 5.67648 55.6628 5.53083 55.6657 5.33351C55.6628 5.11912 55.6086 4.96485 55.5056 4.87059C55.4027 4.77616 55.2713 4.71613 55.1112 4.69331C54.954 4.67049 54.7882 4.66186 54.6196 4.66474H53.6249V2.64108C53.6278 2.40953 53.6135 2.23522 53.5792 2.12083C53.5448 2.00367 53.4649 1.92648 53.3448 1.8865C53.2247 1.84939 53.0389 1.83214 52.7845 1.83511C52.5645 1.83511 52.3958 1.8608 52.273 1.91507C52.1529 1.96934 52.0643 2.06081 52.0043 2.18373C51.9443 2.30665 51.8957 2.46965 51.8585 2.67541C51.8356 2.82402 51.8013 2.99268 51.7527 3.18693C51.707 3.37859 51.6498 3.56719 51.5871 3.75292C51.5242 3.93873 51.4526 4.0931 51.3783 4.2188C51.2925 4.34747 51.1896 4.44469 51.0753 4.51325C50.9582 4.57902 50.8324 4.62754 50.6924 4.65621C50.5551 4.68756 50.4122 4.71326 50.2636 4.73339C50.1378 4.75333 50.0235 4.78478 49.9234 4.82477C49.8234 4.86475 49.7434 4.92199 49.6833 5.00196C49.6261 5.08202 49.5976 5.19352 49.5948 5.33351C49.5976 5.54512 49.649 5.69939 49.7462 5.79086C49.8435 5.88521 49.9663 5.93948 50.1178 5.95951C50.2693 5.97946 50.4265 5.98809 50.5894 5.9853H50.9325V11.4388C50.9325 11.7246 50.9553 11.9533 51.0038 12.1276C51.0553 12.3019 51.1326 12.4335 51.2439 12.5221C51.3526 12.6108 51.4984 12.6707 51.6784 12.6994C51.8585 12.7307 52.0785 12.745 52.3387 12.7421H54.6539C54.7625 12.7421 54.8825 12.7393 55.0083 12.7279C55.1369 12.7164 55.257 12.6907 55.3713 12.6507C55.4857 12.6108 55.5799 12.5449 55.6542 12.4593C55.7286 12.3735 55.7657 12.2563 55.7686 12.1077C55.7657 11.9246 55.7314 11.7875 55.6628 11.6932C55.5913 11.596 55.5027 11.5331 55.3884 11.496C55.2769 11.4617 55.1541 11.4416 55.0226 11.4388C54.8911 11.4359 54.7625 11.4359 54.6367 11.4388C54.3509 11.4388 54.1365 11.393 53.9993 11.3044C53.8621 11.2158 53.7706 11.0843 53.7307 10.9128C53.6907 10.7386 53.6735 10.527 53.6764 10.2755ZM48.5143 10.4441V7.78595C48.5171 7.39149 48.4771 7.03137 48.3914 6.70834C48.3056 6.38532 48.1627 6.09384 47.9627 5.83381C47.7626 5.5736 47.4882 5.34502 47.1423 5.14491C46.8651 4.99055 46.5707 4.87059 46.2563 4.77903C45.9448 4.68756 45.6246 4.62466 45.3016 4.58468C44.9757 4.5447 44.6585 4.52744 44.347 4.52744C44.204 4.52744 44.0211 4.53329 43.7953 4.55036C43.5723 4.56464 43.3294 4.59034 43.0664 4.62754C42.8035 4.66474 42.5434 4.7191 42.2833 4.78478C42.0232 4.85046 41.7859 4.93628 41.5688 5.03916C41.3544 5.13925 41.18 5.26495 41.0485 5.40791C40.9199 5.55365 40.8513 5.72231 40.8484 5.91666C40.8513 6.11388 40.9085 6.274 41.0142 6.39117C41.1199 6.51112 41.2515 6.59405 41.4116 6.64554C41.5688 6.69693 41.7317 6.72263 41.8946 6.72263C42.1061 6.71985 42.2861 6.68265 42.4376 6.61122C42.5891 6.53978 42.7262 6.45397 42.8493 6.34822C42.9693 6.24246 43.0921 6.13958 43.2123 6.03392C43.3322 5.92807 43.4666 5.83947 43.6152 5.77092C43.761 5.69939 43.9382 5.66228 44.1412 5.65941C44.5013 5.66228 44.7957 5.73938 45.0272 5.89087C45.2559 6.04523 45.4274 6.25396 45.536 6.51687C45.6474 6.78275 45.7018 7.08573 45.7018 7.42582H45.1358C44.8242 7.42582 44.4899 7.44298 44.1297 7.48009C43.7724 7.51729 43.4124 7.58019 43.0465 7.6659C42.6806 7.75162 42.3319 7.86888 41.9974 8.01462C41.663 8.16324 41.3658 8.34609 41.1028 8.56344C40.8428 8.78349 40.634 9.04361 40.4825 9.3466C40.3283 9.64661 40.2511 9.99542 40.2483 10.3927C40.2511 10.8272 40.3369 11.2044 40.4997 11.5303C40.6656 11.8561 40.8913 12.1276 41.1743 12.3449C41.46 12.5622 41.7832 12.7279 42.1432 12.8365C42.5062 12.9451 42.8864 12.9994 43.2837 12.9994C43.6295 12.9994 43.964 12.9594 44.287 12.8765C44.6099 12.7907 44.91 12.6535 45.1844 12.4649C45.4588 12.2762 45.6932 12.0247 45.8905 11.7132C45.9019 11.9019 45.9162 12.0618 45.9333 12.1934C45.9533 12.3248 45.9875 12.4306 46.0419 12.5107C46.0963 12.5906 46.1848 12.6507 46.302 12.6879C46.4221 12.7251 46.5878 12.7421 46.7993 12.7421H48.4799C48.6144 12.745 48.7516 12.7393 48.8916 12.7221C49.0288 12.705 49.1459 12.6592 49.2404 12.585C49.3346 12.5077 49.386 12.3849 49.3889 12.2106C49.386 12.0705 49.346 11.9618 49.2661 11.8904C49.1859 11.8161 49.083 11.7532 48.9601 11.696C48.8829 11.6646 48.8144 11.6217 48.7544 11.5731C48.6943 11.5217 48.6428 11.4559 48.6001 11.3703C48.5658 11.293 48.5428 11.1987 48.5314 11.0843C48.52 10.9701 48.5143 10.8558 48.5143 10.7414C48.5143 10.6271 48.5143 10.527 48.5143 10.4441ZM45.4788 8.47188H45.7875V9.0207C45.7904 9.24075 45.7875 9.45235 45.779 9.65246C45.7704 9.84959 45.739 10.044 45.6875 10.2355C45.6389 10.427 45.5503 10.6213 45.4274 10.8214C45.3302 10.9729 45.2158 11.1073 45.0872 11.2273C44.9558 11.3502 44.8128 11.4474 44.6528 11.5188C44.4955 11.5903 44.3241 11.6246 44.1412 11.6274C43.9125 11.6246 43.7181 11.5674 43.5609 11.4531C43.4037 11.3387 43.2837 11.1901 43.2008 11.0073C43.1208 10.8242 43.0778 10.6242 43.0778 10.4098C43.0808 10.0754 43.1521 9.78669 43.2866 9.54373C43.4238 9.29799 43.6066 9.09788 43.8353 8.93777C44.064 8.78061 44.3213 8.66336 44.6042 8.58617C44.8871 8.50908 45.1787 8.47188 45.4788 8.47188ZM36.0122 3.46422V10.4613C36.0122 10.5442 36.0122 10.6442 36.0094 10.7613C36.0065 10.8786 36.0008 10.9957 35.9922 11.1101C35.9836 11.2215 35.9665 11.3159 35.9436 11.3873C35.9065 11.4645 35.8523 11.5245 35.7807 11.5731C35.7092 11.6217 35.6379 11.6617 35.5663 11.696C35.4521 11.7532 35.3548 11.819 35.2776 11.8933C35.1977 11.9676 35.1577 12.0676 35.1547 12.1934C35.1577 12.3735 35.2091 12.502 35.3033 12.5792C35.3978 12.6564 35.515 12.705 35.6522 12.7221C35.7921 12.7393 35.9294 12.745 36.0637 12.7421H38.7047C38.8448 12.745 38.9848 12.7393 39.122 12.7221C39.2621 12.705 39.3764 12.6564 39.4708 12.5792C39.5622 12.502 39.6108 12.3735 39.6137 12.1934C39.6108 12.0676 39.5737 11.9676 39.4993 11.8933C39.4278 11.819 39.3336 11.7532 39.2192 11.696C39.1478 11.6617 39.0763 11.6217 39.0048 11.5731C38.9334 11.5245 38.8791 11.4645 38.8419 11.3873C38.8133 11.3159 38.7933 11.2215 38.7819 11.1101C38.7704 10.9957 38.762 10.8786 38.759 10.7613C38.7561 10.6442 38.7561 10.5442 38.7561 10.4613V1.64643C38.7561 1.59499 38.7561 1.53494 38.7561 1.46923C38.7561 1.40634 38.7561 1.33769 38.7561 1.26913C38.7561 1.12908 38.7505 0.986104 38.7362 0.837545C38.7219 0.69173 38.6904 0.554516 38.6447 0.428749C38.599 0.300144 38.5303 0.200102 38.4389 0.120099C38.3446 0.0429335 38.2245 0.00293149 38.0702 0C37.9387 0 37.7872 0.0172084 37.6157 0.0543716C37.4414 0.0886033 37.2613 0.131537 37.0755 0.182977C36.8898 0.237265 36.7096 0.291628 36.5353 0.345916C36.3638 0.403034 36.2123 0.451636 36.0808 0.497408C36.0008 0.517353 35.9037 0.540239 35.7921 0.565964C35.6806 0.594518 35.5692 0.628843 35.4606 0.671776C35.3492 0.717456 35.2577 0.774666 35.1834 0.848992C35.1091 0.923216 35.0719 1.01759 35.069 1.13192C35.0748 1.26335 35.1176 1.36341 35.1977 1.42629C35.2805 1.49201 35.3749 1.54639 35.4806 1.59499C35.5778 1.64927 35.6578 1.70068 35.7235 1.7493C35.7894 1.80078 35.8436 1.8608 35.8836 1.92936C35.9236 2.00088 35.9551 2.09514 35.978 2.2123C35.9894 2.33522 35.9979 2.46964 36.0008 2.61529C36.0065 2.764 36.0094 2.91262 36.0122 3.05836C36.0122 3.20697 36.0122 3.34139 36.0122 3.46422ZM30.9702 3.46422V10.4613C30.9702 10.5442 30.9702 10.6442 30.9674 10.7613C30.9646 10.8786 30.9588 10.9957 30.9503 11.1101C30.9416 11.2215 30.9246 11.3159 30.9017 11.3873C30.8645 11.4645 30.8102 11.5245 30.7387 11.5731C30.6672 11.6217 30.5959 11.6617 30.5244 11.696C30.4101 11.7532 30.3128 11.819 30.2357 11.8933C30.1557 11.9676 30.1156 12.0676 30.1127 12.1934C30.1156 12.3735 30.1671 12.502 30.2614 12.5792C30.3557 12.6564 30.4729 12.705 30.6101 12.7221C30.7502 12.7393 30.8874 12.745 31.0217 12.7421H33.6627C33.8027 12.745 33.9428 12.7393 34.08 12.7221C34.2201 12.705 34.3344 12.6564 34.4287 12.5792C34.5202 12.502 34.5688 12.3735 34.5717 12.1934C34.5688 12.0676 34.5316 11.9676 34.4573 11.8933C34.3859 11.819 34.2915 11.7532 34.1772 11.696C34.1057 11.6617 34.0344 11.6217 33.9628 11.5731C33.8914 11.5245 33.837 11.4645 33.7999 11.3873C33.7714 11.3159 33.7513 11.2215 33.7399 11.1101C33.7284 10.9957 33.7199 10.8786 33.717 10.7613C33.7141 10.6442 33.7141 10.5442 33.7141 10.4613V1.64643C33.7141 1.59499 33.7141 1.53494 33.7141 1.46923C33.7141 1.40634 33.7141 1.33769 33.7141 1.26913C33.7141 1.12908 33.7085 0.986104 33.6942 0.837545C33.6799 0.69173 33.6484 0.554516 33.6026 0.428749C33.557 0.300144 33.4883 0.200102 33.3969 0.120099C33.3026 0.0429335 33.1826 0.00293149 33.0282 0C32.8967 0 32.7452 0.0172084 32.5737 0.0543716C32.3993 0.0886033 32.2193 0.131537 32.0335 0.182977C31.8478 0.237265 31.6676 0.291628 31.4933 0.345916C31.3218 0.403034 31.1703 0.451636 31.0389 0.497408C30.9588 0.517353 30.8617 0.540239 30.7502 0.565964C30.6386 0.594518 30.5271 0.628843 30.4186 0.671776C30.3072 0.717456 30.2157 0.774666 30.1414 0.848992C30.067 0.923216 30.0299 1.01759 30.027 1.13192C30.0327 1.26335 30.0756 1.36341 30.1557 1.42629C30.2384 1.49201 30.3329 1.54639 30.4386 1.59499C30.5358 1.64927 30.6158 1.70068 30.6815 1.7493C30.7474 1.80078 30.8016 1.8608 30.8416 1.92936C30.8816 2.00088 30.9131 2.09514 30.936 2.2123C30.9473 2.33522 30.9559 2.46964 30.9588 2.61529C30.9645 2.764 30.9674 2.91262 30.9702 3.05836C30.9702 3.20697 30.9702 3.34139 30.9702 3.46422ZM28.6721 10.4441V7.78595C28.675 7.39149 28.6349 7.03137 28.5492 6.70834C28.4635 6.38532 28.3205 6.09384 28.1205 5.83381C27.9204 5.5736 27.646 5.34502 27.3003 5.14491C27.023 4.99055 26.7285 4.87059 26.4141 4.77903C26.1026 4.68756 25.7825 4.62466 25.4595 4.58468C25.1336 4.5447 24.8164 4.52744 24.5049 4.52744C24.3619 4.52744 24.179 4.53329 23.9532 4.55036C23.7302 4.56464 23.4873 4.59034 23.2243 4.62754C22.9614 4.66474 22.7013 4.7191 22.4411 4.78478C22.1811 4.85046 21.9438 4.93628 21.7266 5.03916C21.5122 5.13925 21.3378 5.26495 21.2064 5.40791C21.0778 5.55365 21.0092 5.72231 21.0063 5.91666C21.0092 6.11388 21.0664 6.274 21.1721 6.39117C21.2778 6.51112 21.4094 6.59405 21.5695 6.64554C21.7266 6.69693 21.8895 6.72263 22.0524 6.72263C22.2639 6.71985 22.444 6.68265 22.5955 6.61122C22.747 6.53978 22.8841 6.45397 23.0071 6.34822C23.1272 6.24246 23.25 6.13958 23.3701 6.03392C23.4901 5.92807 23.6245 5.83947 23.7731 5.77092C23.9188 5.69939 24.096 5.66228 24.299 5.65941C24.6591 5.66228 24.9536 5.73938 25.1851 5.89087C25.4137 6.04523 25.5853 6.25396 25.6939 6.51687C25.8053 6.78275 25.8597 7.08573 25.8597 7.42582H25.2937C24.9821 7.42582 24.6477 7.44298 24.2875 7.48009C23.9303 7.51729 23.5702 7.58019 23.2043 7.6659C22.8385 7.75162 22.4897 7.86888 22.1553 8.01462C21.8209 8.16324 21.5237 8.34609 21.2607 8.56344C21.0006 8.78349 20.792 9.04361 20.6405 9.3466C20.4861 9.64661 20.4089 9.99542 20.4062 10.3927C20.4089 10.8272 20.4948 11.2044 20.6576 11.5303C20.8234 11.8561 21.0491 12.1276 21.3322 12.3449C21.6179 12.5622 21.941 12.7279 22.3011 12.8365C22.6641 12.9451 23.0442 12.9994 23.4416 12.9994C23.7874 12.9994 24.1218 12.9594 24.4449 12.8765C24.7678 12.7907 25.0679 12.6535 25.3423 12.4649C25.6167 12.2762 25.851 12.0247 26.0484 11.7132C26.0598 11.9019 26.0741 12.0618 26.0911 12.1934C26.1112 12.3248 26.1454 12.4306 26.1998 12.5107C26.2541 12.5906 26.3427 12.6507 26.4599 12.6879C26.5799 12.7251 26.7457 12.7421 26.9572 12.7421H28.6378C28.7722 12.745 28.9094 12.7393 29.0494 12.7221C29.1866 12.705 29.3038 12.6592 29.3982 12.585C29.4925 12.5077 29.5439 12.3849 29.5468 12.2106C29.5439 12.0705 29.5039 11.9618 29.4239 11.8904C29.3438 11.8161 29.2409 11.7532 29.118 11.696C29.0408 11.6646 28.9723 11.6217 28.9122 11.5731C28.8522 11.5217 28.8007 11.4559 28.7579 11.3703C28.7236 11.293 28.7007 11.1987 28.6893 11.0843C28.6779 10.9701 28.6721 10.8558 28.6721 10.7414C28.6721 10.6271 28.6721 10.527 28.6721 10.4441ZM25.6367 8.47188H25.9454V9.0207C25.9483 9.24075 25.9454 9.45235 25.9369 9.65246C25.9282 9.84959 25.8969 10.044 25.8454 10.2355C25.7968 10.427 25.7082 10.6213 25.5853 10.8214C25.488 10.9729 25.3737 11.1073 25.2451 11.2273C25.1136 11.3502 24.9707 11.4474 24.8106 11.5188C24.6534 11.5903 24.482 11.6246 24.299 11.6274C24.0703 11.6246 23.876 11.5674 23.7187 11.4531C23.5616 11.3387 23.4416 11.1901 23.3586 11.0073C23.2787 10.8242 23.2357 10.6242 23.2357 10.4098C23.2387 10.0754 23.3101 9.78669 23.4444 9.54373C23.5816 9.29799 23.7645 9.09788 23.9932 8.93777C24.2218 8.78061 24.4792 8.66336 24.762 8.58617C25.045 8.50908 25.3365 8.47188 25.6367 8.47188Z" fill="white"/>
<path fill-rule="evenodd" clip-rule="evenodd" d="M7.68533 5.54047L7.67475 5.60476C7.39765 5.0192 7.04105 4.32103 6.62683 3.77861C5.42659 2.20033 4.27663 1.03686 2.20993 0.32306C1.74553 0.163563 0.5502 -0.163985 0.166787 0.281769C-0.368304 0.906855 0.544729 2.5612 0.664864 3.68732C0.837414 5.2963 0.817471 7.31254 5.16647 6.64034C2.68639 7.67276 -0.173673 9.15345 1.57372 11.6615C2.44677 12.9116 3.97448 13.4524 5.61037 12.5396C6.73528 11.9125 6.9956 10.0875 7.60314 9.0103L7.78413 8.61928C7.71075 7.59799 7.67039 6.57688 7.68533 5.55569V5.54047Z" fill="#FF0000"/>
</svg>
