<svg width="14" height="14" viewBox="0 0 14 14" fill="none" xmlns="http://www.w3.org/2000/svg">
<path d="M11.9498 2.05023C10.6276 0.728137 8.86977 0 7 0C5.13023 0 3.37239 0.728137 2.05023 2.05023C0.728137 3.37239 0 5.13023 0 7C0 8.86977 0.728137 10.6276 2.05023 11.9498C3.37239 13.2719 5.13023 14 7 14C8.28004 14 9.5325 13.6511 10.622 12.9912C10.8803 12.8347 10.9629 12.4984 10.8064 12.2401C10.6499 11.9817 10.3137 11.8992 10.0553 12.0557C9.13675 12.6121 8.08021 12.9062 7 12.9062C3.74328 12.9062 1.09375 10.2567 1.09375 7C1.09375 3.74328 3.74328 1.09375 7 1.09375C10.2567 1.09375 12.9062 3.74328 12.9062 7C12.9062 8.16454 12.5599 9.29808 11.9048 10.2781C11.7369 10.5291 11.8044 10.8688 12.0554 11.0366C12.3065 11.2046 12.6462 11.1371 12.814 10.886C13.5899 9.72546 14 8.38168 14 7C14 5.13023 13.2719 3.37239 11.9498 2.05023Z" fill="#FF0000"/>
<path d="M5.3128 10.2155C5.39549 10.2602 5.48455 10.2814 5.57238 10.2814C5.76676 10.2814 5.95502 10.1775 6.05393 9.99452L9.01001 4.52577C9.15364 4.26005 9.05469 3.92823 8.78899 3.78465C8.52323 3.64101 8.19142 3.74 8.04786 4.00567L5.09178 9.47442C4.94815 9.74012 5.0471 10.0719 5.3128 10.2155Z" fill="#FF0000"/>
<path d="M6.09766 5.08594C6.09766 4.33207 5.48434 3.71875 4.73047 3.71875C3.9766 3.71875 3.36328 4.33207 3.36328 5.08594C3.36328 5.8398 3.9766 6.45312 4.73047 6.45312C5.48434 6.45312 6.09766 5.8398 6.09766 5.08594ZM4.73047 5.35938C4.5797 5.35938 4.45703 5.23671 4.45703 5.08594C4.45703 4.93516 4.5797 4.8125 4.73047 4.8125C4.88124 4.8125 5.00391 4.93516 5.00391 5.08594C5.00391 5.23671 4.88124 5.35938 4.73047 5.35938Z" fill="#FF0000"/>
<path d="M9.24219 10.2812C9.99605 10.2812 10.6094 9.66793 10.6094 8.91406C10.6094 8.1602 9.99605 7.54688 9.24219 7.54688C8.48832 7.54688 7.875 8.1602 7.875 8.91406C7.875 9.66793 8.48832 10.2812 9.24219 10.2812ZM9.24219 8.64062C9.39296 8.64062 9.51562 8.76329 9.51562 8.91406C9.51562 9.06484 9.39296 9.1875 9.24219 9.1875C9.09141 9.1875 8.96875 9.06484 8.96875 8.91406C8.96875 8.76329 9.09141 8.64062 9.24219 8.64062Z" fill="#FF0000"/>
</svg>
