<svg width="38" height="38" viewBox="0 0 38 38" fill="none" xmlns="http://www.w3.org/2000/svg">
<g clip-path="url(#clip0)">
<path d="M37.664 9.17523H37.6665L34.3958 3.63519C33.9563 2.89427 33.1599 2.43875 32.2984 2.43591H6.34309C5.54728 2.43591 4.80157 2.82452 4.34565 3.47685L0.436038 9.08137C0.150714 9.48995 -0.00161108 9.97672 1.28506e-05 10.4751V11.9935C0.00983764 13.6613 1.09105 15.1337 2.6795 15.6422V34.7537C2.66838 35.19 3.01306 35.5528 3.44941 35.5639C3.45533 35.564 3.46118 35.5641 3.46711 35.5641H34.4878C34.94 35.5665 35.3106 35.2058 35.3205 34.7537V15.6568C36.9161 15.1494 37.9999 13.6678 38 11.9934V10.4082C37.9968 9.97502 37.881 9.5502 37.664 9.17523ZM22.7351 33.9402H15.265V22.8975H22.7351V33.9402ZM33.6966 33.9402H24.359V22.0931C24.3459 21.6377 23.9736 21.2748 23.518 21.2735H14.4368C13.9922 21.2786 13.6359 21.643 13.641 22.0876C13.641 22.0895 13.641 22.0913 13.641 22.0931V33.9402H4.30343V15.7988C5.11743 15.696 5.87775 15.3373 6.47479 14.7746C7.63403 17.201 10.5408 18.2283 12.9673 17.0691C13.759 16.6909 14.4338 16.1057 14.9203 15.3755C16.4156 17.6164 19.4445 18.2209 21.6854 16.7255C22.2369 16.3576 22.7075 15.881 23.0686 15.3251C24.5525 17.5862 27.5884 18.2163 29.8496 16.7324C30.5847 16.2499 31.1764 15.5784 31.5625 14.7884C32.1517 15.3377 32.8979 15.6891 33.6966 15.7933V33.9402ZM36.3761 11.9934C36.3772 13.2123 35.39 14.2013 34.1712 14.2025C33.131 14.2035 32.2313 13.478 32.0118 12.4612L31.9587 11.9141C31.9122 11.4681 31.513 11.1442 31.067 11.1906C30.6551 11.2335 30.3416 11.5794 30.3391 11.9934C30.339 12.2311 30.361 12.4685 30.4049 12.7022L30.4055 12.7074C30.3879 14.5 28.9205 15.939 27.128 15.9214C25.3449 15.904 23.9097 14.4514 23.9138 12.6682C23.9139 12.2195 23.5506 11.8554 23.1018 11.8547H23.0355C22.5867 11.8554 22.2234 12.2195 22.2235 12.6682C22.2328 14.4609 20.7871 15.9217 18.9943 15.9309C17.2017 15.9402 15.7409 14.4945 15.7316 12.7018C15.7315 12.691 15.7315 12.6802 15.7316 12.6693C15.7316 12.2208 15.3681 11.8573 14.9196 11.8573C14.4712 11.8573 14.1077 12.2208 14.1077 12.6693C14.1043 14.462 12.6482 15.9125 10.8555 15.9091C9.07763 15.9058 7.6333 14.4728 7.61585 12.695L7.6303 12.4781C7.65068 12.3172 7.66083 12.1552 7.66083 11.9931C7.66091 11.5446 7.29747 11.181 6.84903 11.1809C6.42144 11.1809 6.06702 11.5124 6.03868 11.9391L6.01376 12.3133C5.8387 13.5192 4.71916 14.3548 3.51331 14.1798C2.42747 14.0222 1.62248 13.0906 1.62394 11.9934V10.475C1.62281 10.3091 1.67299 10.1467 1.76758 10.0103L5.6785 4.40631C5.83001 4.18903 6.07823 4.0596 6.34309 4.05984H32.2984C32.5853 4.06017 32.8509 4.21152 32.9975 4.45819L36.2657 9.9958C36.3388 10.1209 36.3769 10.2633 36.3761 10.4082V11.9934Z" fill="white"/>
<path d="M11.2862 21.5983H6.17085C5.7224 21.5983 5.35889 21.9618 5.35889 22.4102V27.2008C5.35889 27.6493 5.7224 28.0128 6.17085 28.0128H11.2862C11.7347 28.0128 12.0982 27.6493 12.0982 27.2008V22.4102C12.0982 21.9618 11.7347 21.5983 11.2862 21.5983ZM10.4743 26.3889H6.98282V23.2222H10.4743V26.3889Z" fill="white"/>
<path d="M31.7479 21.5983H26.6325C26.1841 21.5983 25.8206 21.9618 25.8206 22.4102V27.2008C25.8206 27.6493 26.1841 28.0128 26.6325 28.0128H31.7479C32.1964 28.0128 32.5599 27.6493 32.5599 27.2008V22.4102C32.5599 21.9618 32.1964 21.5983 31.7479 21.5983ZM30.9359 26.3889H27.4445V23.2222H30.9359V26.3889Z" fill="white"/>
</g>
<defs>
<clipPath id="clip0">
<rect width="38" height="38" fill="white"/>
</clipPath>
</defs>
</svg>
