<svg width="7" height="11" viewBox="0 0 7 11" fill="none" xmlns="http://www.w3.org/2000/svg">
<path d="M6.55574 5.07078L1.6606 0.17573C1.54738 0.0624223 1.39625 0 1.23509 0C1.07394 0 0.922802 0.0624223 0.809583 0.17573L0.44909 0.536134C0.214515 0.770977 0.214515 1.15267 0.44909 1.38715L4.55966 5.49772L0.444529 9.61285C0.331311 9.72616 0.268799 9.8772 0.268799 10.0383C0.268799 10.1995 0.331311 10.3506 0.444529 10.464L0.805022 10.8243C0.91833 10.9376 1.06938 11 1.23053 11C1.39168 11 1.54282 10.9376 1.65604 10.8243L6.55574 5.92475C6.66923 5.81108 6.73156 5.65932 6.7312 5.49799C6.73156 5.33603 6.66923 5.18436 6.55574 5.07078Z" fill="#F00"/>
</svg>
